<svg version="1.0" xmlns="http://www.w3.org/2000/svg"
 width="1992.000000pt" height="2004.000000pt" viewBox="0 0 1992.000000 2004.000000" fill="currentColor" preserveAspectRatio="xMidYMid meet">
<g transform="translate(0.000000,2004.000000) scale(0.100000,-0.100000)" stroke="none">
<path fill="currentColor" d="M18894 19480 c-12 -5 -25 -14 -29 -20 -5 -7 -21 -9 -47 -5 -37 7 -40
6 -33 -14 5 -18 2 -21 -19 -21 -21 0 -26 -5 -26 -24 0 -13 6 -27 13 -30 8 -3
6 -10 -8 -21 -19 -15 -20 -15 -23 9 -2 15 -8 26 -13 26 -12 0 -8 -42 5 -52 15
-10 -15 -39 -34 -33 -12 4 -16 0 -16 -17 1 -19 -4 -23 -24 -20 -18 1 -21 -1
-11 -7 19 -13 4 -31 -26 -31 -20 0 -24 -4 -20 -20 4 -16 0 -20 -20 -20 -19 0
-24 -4 -21 -22 2 -19 -1 -22 -19 -20 -26 4 -32 -25 -11 -46 10 -10 10 -15 -2
-22 -11 -7 -16 -4 -18 10 -2 11 -10 20 -19 20 -10 0 -14 -6 -10 -20 4 -16 0
-20 -20 -20 -19 0 -24 -4 -21 -22 2 -19 -1 -22 -20 -20 -20 3 -23 0 -20 -20 2
-19 -1 -22 -21 -20 -20 3 -23 0 -18 -17 4 -17 1 -21 -20 -21 -19 0 -24 -4 -21
-22 2 -19 -1 -22 -19 -20 -19 3 -23 -2 -23 -23 0 -22 -3 -25 -21 -20 -18 6
-20 4 -14 -14 5 -18 2 -21 -20 -21 -21 0 -26 -4 -23 -22 2 -19 -1 -22 -19 -20
-19 3 -23 -1 -23 -24 0 -21 -4 -25 -19 -21 -14 3 -17 0 -14 -14 5 -18 -5 -24
-35 -20 -9 2 -12 -4 -8 -17 6 -16 0 -21 -36 -27 -24 -4 -35 -10 -25 -12 21 -6
24 -53 2 -53 -8 0 -22 -11 -31 -26 -12 -18 -24 -24 -43 -22 -23 3 -26 -1 -29
-29 -2 -21 -9 -33 -18 -33 -8 0 -14 4 -14 8 0 4 -12 9 -26 10 -17 1 -24 -2
-21 -11 2 -6 14 -11 25 -9 12 2 22 0 22 -5 -1 -20 -38 -52 -65 -55 -25 -2 -29
-7 -27 -25 2 -15 -9 -34 -33 -58 -24 -24 -43 -35 -58 -33 -17 2 -23 -3 -25
-23 -3 -25 -6 -27 -43 -22 -32 5 -39 3 -39 -11 0 -10 8 -16 21 -16 15 0 20 -5
17 -22 -2 -17 -10 -23 -28 -23 -15 0 -25 6 -25 14 0 8 -6 16 -13 19 -7 2 -10
-2 -6 -12 3 -8 2 -21 -2 -28 -5 -7 -7 -23 -5 -35 1 -13 -2 -23 -8 -23 -6 0
-11 5 -11 10 0 6 -14 10 -31 10 -24 0 -30 -4 -27 -17 2 -11 11 -17 22 -15 13
2 17 -2 14 -20 -4 -31 -43 -37 -51 -9 -5 22 -29 30 -26 9 1 -7 1 -27 0 -45 -1
-30 -2 -31 -41 -26 -33 5 -40 3 -40 -11 0 -10 8 -16 21 -16 15 0 20 -5 17 -22
-4 -31 -48 -39 -48 -9 0 12 -6 21 -14 21 -10 0 -13 -12 -12 -41 2 -35 0 -40
-16 -36 -10 3 -21 1 -24 -4 -3 -6 -14 -7 -25 -4 -13 5 -19 2 -19 -10 0 -10 7
-15 18 -13 12 2 17 -4 17 -22 0 -18 -6 -26 -22 -28 -18 -3 -23 2 -23 17 0 12
-7 21 -14 21 -11 0 -14 -11 -13 -40 2 -36 0 -40 -23 -42 -44 -2 -48 -3 -56
-11 -4 -4 3 -7 15 -7 18 0 22 -5 19 -27 -2 -22 -9 -29 -30 -31 -23 -3 -28 1
-28 18 0 12 -4 19 -8 16 -4 -2 -8 -19 -7 -38 0 -27 -4 -34 -24 -38 -21 -4 -25
-11 -25 -40 -1 -31 -4 -35 -28 -38 -23 -3 -28 1 -28 18 0 12 -4 19 -9 16 -4
-3 -7 -21 -5 -41 2 -32 0 -35 -24 -37 -15 0 -35 -1 -44 0 -10 1 -18 -3 -18 -8
0 -6 9 -10 20 -10 28 0 26 -34 -4 -54 -14 -9 -32 -13 -40 -10 -9 3 -16 1 -16
-5 0 -6 5 -11 11 -11 5 0 7 -4 4 -10 -3 -5 -17 -10 -31 -10 -19 0 -24 -5 -24
-24 0 -31 -66 -96 -98 -96 -18 0 -23 -5 -20 -22 2 -19 -1 -23 -19 -21 -17 2
-23 -2 -23 -18 0 -11 -5 -29 -10 -40 -13 -24 -52 -26 -48 -3 2 10 -3 19 -10
21 -8 3 -11 -4 -10 -19 3 -19 -1 -23 -20 -20 -15 1 -22 -2 -19 -10 2 -7 11
-12 21 -10 32 6 15 -27 -46 -86 -57 -55 -65 -60 -100 -57 -29 3 -38 0 -38 -12
0 -10 6 -14 20 -10 43 11 16 -26 -109 -149 -71 -70 -136 -131 -143 -135 -22
-14 -30 -10 -23 11 5 14 2 20 -10 20 -11 0 -15 -7 -13 -22 2 -19 -1 -22 -21
-20 -20 3 -23 0 -18 -17 2 -11 -1 -28 -9 -38 -9 -11 -13 -13 -12 -4 2 7 -3 16
-10 18 -10 4 -13 -2 -10 -18 2 -20 -1 -23 -20 -21 -18 3 -23 -1 -21 -15 6 -41
-11 -63 -47 -63 -28 0 -35 -4 -33 -17 3 -33 -1 -53 -11 -53 -5 0 -7 7 -4 15 4
10 0 15 -11 15 -11 0 -15 -7 -13 -22 2 -19 -1 -22 -19 -20 -16 2 -23 -2 -23
-13 0 -11 5 -15 15 -11 8 3 15 1 15 -4 0 -10 -20 -14 -54 -10 -11 1 -16 -3
-14 -12 3 -7 13 -12 22 -12 12 1 14 -1 7 -10 -6 -7 -24 -11 -41 -8 -27 4 -30
1 -30 -22 0 -18 4 -24 15 -20 8 4 15 2 15 -3 0 -5 -141 -149 -312 -320 -293
-291 -373 -371 -430 -433 -48 -51 -127 -120 -138 -120 -7 0 -9 8 -5 20 4 14 2
20 -8 20 -22 0 -26 -10 -15 -36 9 -20 8 -28 -5 -41 -13 -13 -21 -14 -41 -5
-26 11 -36 7 -36 -16 0 -9 7 -13 20 -9 11 3 20 1 20 -5 0 -16 -129 -145 -151
-151 -10 -3 -16 -1 -13 4 8 13 -25 24 -37 12 -7 -7 -5 -16 7 -27 15 -16 15
-18 -1 -36 -19 -22 -50 -26 -60 -10 -9 14 -25 3 -25 -17 0 -10 6 -14 20 -10
33 9 23 -9 -51 -88 -73 -76 -89 -87 -89 -60 0 8 -9 15 -20 15 -11 0 -20 -7
-20 -15 0 -8 9 -15 20 -15 11 0 20 -5 20 -11 0 -14 -523 -534 -552 -550 -16
-9 -19 -7 -16 7 2 11 -4 20 -14 22 -14 3 -17 -3 -16 -22 1 -14 6 -26 11 -26
23 0 -90 -125 -137 -152 -17 -9 -18 -7 -12 16 5 20 3 26 -9 26 -10 0 -15 -7
-14 -17 3 -37 -2 -49 -41 -91 -22 -24 -40 -47 -40 -52 0 -5 -32 -39 -72 -77
-39 -37 -94 -92 -122 -121 -28 -29 -73 -75 -101 -102 -107 -106 -235 -236
-352 -358 -218 -225 -393 -395 -401 -388 -3 4 60 72 141 153 81 80 146 151
144 157 -2 6 -12 13 -21 14 -13 3 -17 -2 -14 -20 2 -19 -1 -22 -19 -20 -19 3
-23 -2 -23 -23 0 -22 -3 -25 -21 -20 -17 6 -20 3 -17 -17 2 -19 -1 -22 -20
-20 -20 3 -23 0 -20 -20 2 -19 -1 -22 -20 -20 -20 3 -23 0 -20 -20 2 -19 -1
-22 -20 -20 -20 3 -23 0 -20 -20 2 -19 -1 -23 -20 -21 -19 3 -23 -1 -20 -20 2
-18 -1 -22 -19 -20 -18 2 -22 -2 -20 -20 2 -18 -3 -22 -21 -20 -19 3 -23 -1
-20 -20 2 -18 -1 -21 -19 -19 -19 3 -23 -1 -20 -20 2 -19 -2 -22 -21 -20 -20
3 -23 0 -20 -20 2 -19 -1 -23 -20 -21 -19 3 -23 -1 -20 -20 2 -18 -1 -22 -19
-20 -18 2 -22 -2 -20 -20 2 -17 -3 -22 -20 -20 -18 2 -22 -2 -20 -20 2 -17 -3
-22 -20 -20 -18 2 -22 -2 -20 -20 2 -17 -3 -22 -20 -20 -18 2 -22 -2 -20 -20
2 -18 -2 -21 -20 -19 -19 3 -23 -1 -20 -20 1 -17 -3 -23 -18 -23 -13 0 -20 -7
-20 -20 0 -13 -7 -20 -20 -20 -14 0 -19 -6 -17 -19 2 -11 -4 -20 -16 -23 -11
-3 -22 -13 -25 -24 -3 -11 -14 -19 -26 -19 -14 0 -19 -5 -14 -16 4 -10 -1 -17
-15 -21 -11 -2 -22 -13 -25 -24 -3 -10 -12 -19 -20 -19 -8 0 -17 -9 -20 -20
-3 -11 -12 -20 -20 -20 -8 0 -17 -9 -20 -20 -3 -11 -12 -20 -20 -20 -8 0 -17
-9 -20 -20 -3 -11 -12 -20 -20 -20 -8 0 -17 -9 -20 -20 -3 -12 -14 -20 -25
-20 -13 0 -19 -6 -18 -17 1 -13 -5 -17 -21 -16 -18 2 -22 -2 -20 -20 2 -18 -2
-21 -21 -19 -20 3 -23 0 -20 -20 2 -19 -1 -22 -20 -20 -20 3 -23 0 -20 -20 2
-19 -1 -22 -20 -20 -20 3 -23 0 -20 -20 2 -19 -1 -22 -19 -20 -19 3 -23 -2
-23 -22 0 -14 2 -26 4 -26 3 0 55 49 118 109 62 60 116 107 120 105 4 -3 13 6
20 20 6 14 17 26 24 26 6 0 14 6 17 14 7 17 47 41 47 28 0 -9 -6 -15 -83 -84
-113 -102 -277 -268 -277 -282 0 -8 -7 -22 -17 -31 -17 -18 -19 -39 -43 -520
-6 -115 -11 -615 -11 -1110 -1 -757 -7 -1154 -24 -1575 -3 -74 -21 -207 -31
-233 -12 -32 -33 -20 -27 17 6 36 -12 106 -28 106 -15 0 -11 -158 5 -167 16
-9 4 -53 -15 -53 -6 0 -8 7 -5 16 3 9 -1 25 -9 37 -17 24 -17 23 -20 -50 -1
-28 -7 -59 -15 -67 -17 -22 -52 -21 -48 0 2 10 -3 19 -10 21 -7 3 -10 -1 -6
-11 3 -8 2 -21 -2 -28 -5 -7 -7 -23 -5 -35 1 -13 -2 -23 -8 -23 -6 0 -11 4
-11 9 0 5 -12 8 -27 7 -19 -2 -27 -9 -28 -25 -1 -11 2 -21 7 -21 4 0 8 5 8 10
0 6 5 10 11 10 6 0 9 -10 7 -22 -4 -27 -48 -39 -48 -14 0 23 -17 20 -23 -4 -3
-11 -11 -20 -19 -20 -18 0 -38 -46 -26 -58 6 -6 -3 -23 -26 -48 -29 -31 -35
-34 -33 -16 0 11 9 23 19 25 10 3 18 11 18 17 0 7 -7 10 -16 6 -9 -3 -19 -6
-24 -6 -4 0 -10 -9 -13 -21 -3 -13 -12 -19 -23 -17 -13 2 -19 -3 -19 -17 0
-15 -6 -19 -22 -18 -18 2 -22 -2 -20 -20 2 -18 -3 -22 -21 -19 -19 2 -22 -2
-17 -18 5 -17 2 -20 -20 -20 -21 0 -26 -4 -23 -22 2 -19 -1 -23 -20 -21 -19 3
-23 -1 -20 -20 2 -18 -1 -21 -19 -19 -19 3 -23 -2 -23 -21 0 -21 -4 -24 -21
-20 -16 5 -20 2 -18 -11 2 -9 7 -18 11 -19 10 -3 90 67 164 143 52 54 64 61
64 43 0 -13 -8 -24 -20 -28 -11 -3 -20 -11 -20 -16 0 -5 -12 -19 -27 -32 -14
-12 -87 -80 -160 -152 -138 -133 -163 -154 -163 -135 0 5 -11 10 -25 10 -20 0
-25 -5 -25 -26 0 -21 -4 -24 -20 -19 -16 5 -20 2 -18 -17 3 -19 -1 -22 -20
-20 -20 3 -23 0 -20 -20 2 -19 -1 -23 -19 -21 -15 2 -23 -3 -23 -12 0 -8 7
-15 15 -15 25 0 17 -19 -30 -68 -27 -27 -49 -43 -53 -37 -4 6 -17 11 -30 13
-20 3 -23 0 -20 -20 2 -19 -1 -22 -19 -20 -19 3 -23 -1 -20 -20 2 -18 -2 -23
-20 -21 -18 2 -22 -2 -20 -20 2 -18 -3 -22 -21 -19 -19 2 -22 -2 -17 -18 5
-17 2 -20 -20 -20 -21 0 -26 -4 -23 -23 2 -18 -1 -21 -20 -19 -26 4 -29 -13
-4 -27 14 -8 10 -10 -20 -11 -34 0 -38 -3 -38 -26 0 -21 -4 -24 -20 -19 -16 5
-20 2 -18 -17 3 -18 -1 -23 -19 -21 -18 2 -22 -2 -20 -20 2 -18 -3 -22 -21
-19 -19 2 -22 -2 -17 -18 5 -17 2 -20 -20 -20 -21 0 -26 -4 -23 -23 2 -18 -1
-21 -19 -19 -16 2 -23 -2 -23 -14 0 -11 6 -15 20 -11 24 6 26 -5 5 -23 -10 -9
-15 -9 -15 -1 0 6 -12 11 -26 11 -20 0 -25 -4 -22 -22 2 -19 -1 -22 -20 -20
-20 3 -23 0 -20 -20 2 -19 -1 -22 -20 -20 -20 3 -23 0 -20 -20 2 -19 -1 -22
-20 -20 -20 3 -23 0 -20 -20 2 -19 -1 -22 -19 -20 -15 2 -23 -2 -23 -12 0 -8
10 -16 23 -18 20 -3 19 -7 -23 -48 -41 -42 -45 -43 -48 -22 -2 12 -10 22 -18
22 -10 0 -14 -8 -12 -22 2 -19 -1 -23 -20 -21 -19 3 -23 -1 -20 -20 2 -18 -1
-22 -19 -20 -18 2 -22 -2 -20 -20 2 -17 -3 -22 -20 -20 -18 2 -22 -2 -20 -20
2 -18 -2 -21 -21 -19 -21 3 -23 0 -19 -27 6 -37 -12 -54 -54 -53 -25 1 -30 -3
-27 -21 2 -18 -2 -22 -22 -22 -20 0 -24 -4 -22 -22 4 -31 -60 -95 -91 -91 -19
3 -22 -2 -24 -31 -2 -42 -14 -54 -53 -53 -26 1 -31 -3 -28 -21 2 -18 -2 -22
-19 -20 -18 2 -22 -2 -20 -20 2 -17 -3 -22 -20 -20 -18 2 -22 -2 -20 -20 2
-18 -2 -21 -20 -19 -16 2 -23 -2 -23 -12 0 -9 6 -16 13 -16 7 0 8 -3 2 -8 -5
-4 -10 -14 -10 -23 0 -17 -35 -58 -103 -123 -49 -47 -66 -43 -23 5 34 37 40
59 15 59 -10 0 -14 -7 -12 -23 2 -18 -1 -21 -20 -19 -20 3 -23 0 -20 -20 2
-19 -1 -22 -20 -20 -20 3 -23 0 -20 -20 2 -19 -1 -22 -19 -20 -15 2 -23 -2
-23 -12 0 -19 23 -33 28 -18 2 7 8 12 14 12 13 0 -20 -43 -90 -118 -57 -60
-96 -80 -90 -46 2 10 -3 19 -10 21 -8 3 -11 -4 -10 -19 3 -19 -1 -23 -19 -21
-15 2 -23 -3 -23 -13 0 -11 6 -13 20 -9 14 4 20 2 20 -8 0 -10 -15 -14 -60
-13 -35 1 -59 -3 -57 -9 1 -5 19 -10 39 -9 26 0 38 -4 38 -13 0 -11 -13 -13
-62 -8 -49 5 -90 20 -188 68 -69 34 -132 69 -140 77 -9 9 -31 20 -50 26 -21 6
-36 17 -38 28 -3 14 0 17 18 11 21 -7 50 9 50 26 0 5 -20 9 -45 9 -34 0 -45
-4 -45 -15 0 -12 -10 -10 -50 10 -48 24 -69 59 -32 53 9 -1 23 1 30 5 24 15
12 27 -28 27 -29 0 -40 -4 -40 -15 0 -20 -7 -19 -55 9 -38 22 -65 66 -32 53
14 -5 37 9 37 24 0 4 -16 7 -35 7 -23 0 -35 -5 -35 -14 0 -20 -13 -17 -59 13
-42 27 -57 59 -22 48 12 -3 21 0 24 9 8 21 -4 27 -44 22 -64 -7 -111 42 -57
59 22 6 22 7 -6 15 -20 6 -34 5 -44 -2 -12 -10 -13 -7 -10 17 2 22 -2 31 -14
33 -11 2 -18 -3 -18 -12 0 -27 -24 -18 -68 24 -22 22 -50 40 -62 40 -11 0 -28
9 -37 20 -10 11 -24 20 -33 20 -8 0 -28 7 -44 15 -39 20 -218 30 -316 17 -99
-13 -203 -42 -213 -59 -4 -7 -18 -13 -30 -13 -13 0 -31 -6 -42 -14 -11 -7 -44
-21 -72 -30 -29 -10 -55 -22 -58 -27 -10 -15 -52 -10 -59 6 -8 21 -76 21 -76
0 0 -9 12 -18 30 -22 17 -3 30 -11 30 -18 0 -13 -70 -46 -109 -51 -26 -3 -78
46 -87 84 -4 12 -13 22 -20 22 -8 0 -18 8 -21 17 -4 9 -15 25 -25 35 -25 25
-24 83 2 105 11 10 20 21 20 26 0 4 30 44 67 87 65 75 93 97 120 92 8 -2 10 3
7 13 -9 23 284 317 308 309 10 -3 18 -1 18 5 0 6 -5 11 -12 11 -7 0 12 25 42
55 41 41 57 52 67 44 9 -8 14 -7 18 3 3 8 5 19 4 24 -9 32 41 78 57 53 9 -16
26 2 21 23 -4 13 6 31 29 56 19 20 32 29 28 20 -7 -19 7 -22 40 -9 19 7 19 8
-3 14 -20 5 -21 8 -10 29 12 20 14 21 17 5 2 -12 9 -16 19 -13 8 3 19 6 24 6
5 0 9 5 9 11 0 6 -7 9 -15 6 -21 -9 -27 7 -10 29 12 16 14 16 15 3 0 -11 9
-16 30 -16 24 0 29 4 27 21 -2 16 3 20 20 19 18 -2 22 2 20 20 -2 18 2 21 21
19 20 -3 23 0 20 20 -2 19 1 22 20 20 17 -3 22 2 22 17 0 33 -16 25 -86 -44
-37 -36 -72 -64 -78 -62 -6 2 24 38 68 81 80 79 126 115 126 99 0 -5 12 -10
26 -11 21 -2 25 2 22 21 -2 18 1 21 20 19 20 -3 23 0 20 20 -2 19 1 22 20 20
20 -3 23 0 20 20 -2 19 1 22 20 20 16 -2 22 2 22 15 0 11 -5 24 -11 30 -8 8
-5 19 12 42 24 33 62 43 57 15 -2 -10 3 -19 10 -21 8 -3 12 6 12 26 0 17 -4
31 -10 31 -14 0 -12 27 4 53 7 12 18 47 25 77 10 47 9 63 -7 115 -15 50 -22
61 -43 63 -13 2 -32 11 -42 20 -14 13 -52 16 -205 20 -174 4 -189 3 -207 -14
-13 -13 -20 -15 -23 -6 -3 9 -73 12 -300 12 -163 0 -303 4 -311 9 -8 5 -11 16
-8 24 4 11 27 15 103 16 53 1 100 3 103 6 4 2 183 -1 399 -7 393 -11 442 -9
442 22 0 7 -164 10 -521 10 l-521 -1 1 245 c2 230 -4 283 -25 238 -14 -28 -16
-493 -2 -509 17 -21 0 -29 -20 -10 -14 15 -17 42 -20 181 -2 89 2 194 7 232 6
38 16 110 22 159 5 50 15 108 22 130 6 22 12 51 13 65 5 70 107 435 144 513
17 35 30 71 30 79 0 9 6 21 14 27 8 7 17 28 21 47 3 19 13 38 21 41 7 3 14 13
14 22 0 22 28 61 43 61 7 0 12 -12 12 -27 0 -16 5 -29 10 -30 14 -4 16 58 2
85 -12 25 -2 52 23 60 9 3 11 -2 6 -21 -7 -29 2 -60 15 -51 11 6 7 74 -3 74
-5 0 -8 7 -8 16 0 9 7 14 18 12 9 -2 17 -10 17 -17 0 -29 20 -20 21 9 1 23 -3
30 -17 30 -23 0 -15 24 23 68 29 34 61 43 56 16 -2 -10 2 -19 8 -21 15 -5 14
49 -1 60 -6 4 -5 10 5 16 9 6 19 6 26 1 13 -11 24 -3 24 17 0 10 -6 12 -20 8
-35 -11 -22 15 42 81 65 68 81 77 76 42 -2 -11 2 -23 9 -25 8 -3 11 8 8 35 -3
36 1 44 43 85 42 40 51 45 85 42 26 -2 37 0 34 8 -2 7 -10 12 -18 13 -8 0 -18
2 -24 2 -13 3 74 91 108 108 24 13 27 13 27 -1 0 -8 7 -15 16 -15 12 0 15 6
11 21 -9 34 35 68 84 64 30 -3 39 0 39 11 0 11 -6 13 -19 9 -31 -10 -33 10 -3
37 28 26 72 43 72 28 0 -10 67 -6 77 4 3 3 -5 6 -20 6 -32 0 -42 14 -21 31 13
10 17 10 25 -2 7 -10 8 -8 7 10 -2 20 3 27 26 35 22 8 30 8 33 -1 3 -7 9 -13
15 -13 6 0 8 7 4 15 -3 9 3 24 14 35 24 24 52 27 44 5 -5 -12 2 -15 34 -15 50
0 65 18 23 26 -45 9 -38 30 19 59 58 29 61 30 54 10 -5 -12 5 -15 55 -15 34 0
61 4 61 10 0 17 -41 31 -72 25 -43 -10 -33 15 13 30 19 7 55 22 81 34 26 11
52 21 58 21 5 0 18 4 28 9 27 14 91 37 157 56 33 10 74 24 90 31 17 7 47 15
68 19 20 4 40 11 43 16 3 5 16 9 28 9 13 0 43 7 66 15 138 49 489 79 805 70
192 -5 363 6 375 24 11 17 69 40 96 38 26 -2 29 1 26 26 -2 15 1 27 7 27 6 0
11 -4 11 -10 0 -5 5 -10 11 -10 5 0 9 9 7 20 -4 27 78 109 103 103 10 -3 19 0
19 6 0 6 -5 11 -11 11 -8 0 -8 5 1 15 10 12 16 13 26 4 14 -12 16 -9 18 26 1
15 7 19 24 17 20 -3 23 0 20 20 -2 19 1 22 20 20 15 -2 22 2 22 14 0 11 -6 15
-20 11 -21 -6 -25 0 -11 21 22 35 554 561 562 556 5 -3 8 -13 7 -21 -2 -9 2
-18 8 -20 6 -2 11 9 11 27 0 16 -4 30 -9 30 -5 0 1 13 14 29 15 20 32 30 50
30 23 1 27 5 25 24 -2 18 2 21 21 19 20 -3 23 0 20 20 -2 19 1 22 21 20 19 -3
23 0 19 15 -3 11 1 28 8 38 12 17 14 17 14 2 0 -9 4 -17 10 -17 5 0 9 10 7 23
-2 18 2 21 21 19 20 -3 23 0 20 20 -2 19 1 23 19 21 18 -2 22 2 20 20 -2 18 2
21 21 19 24 -4 29 7 10 26 -13 13 -3 16 35 12 14 -1 18 4 15 22 -2 19 1 22 20
20 20 -3 23 0 20 20 -2 19 1 23 20 21 26 -3 29 12 5 26 -15 8 -11 10 20 11 30
0 38 4 36 18 -4 46 5 66 62 127 58 62 87 75 74 34 -4 -12 -2 -19 8 -19 9 0 14
11 14 30 0 17 -5 30 -10 30 -5 0 -4 6 2 14 7 8 21 12 31 9 16 -4 20 -1 18 18
-3 20 1 23 19 21 19 -3 23 1 20 20 -2 19 2 22 21 20 20 -3 23 0 20 20 -2 19 1
23 19 21 18 -2 22 2 20 20 -2 17 3 22 20 20 18 -2 22 2 20 20 -2 18 2 21 21
19 20 -3 23 0 20 20 -2 19 1 22 19 20 19 -3 23 1 20 20 -2 19 2 22 21 20 20
-3 23 0 20 20 -2 19 1 22 19 20 19 -3 23 1 21 22 -2 19 -5 22 -15 14 -11 -8
-12 -7 -6 8 11 30 33 41 70 37 31 -3 34 -1 31 19 -2 19 1 22 19 20 18 -3 22 2
21 28 -1 16 2 33 5 37 4 3 7 -1 7 -10 0 -9 7 -17 16 -17 10 0 14 7 12 23 -2
18 1 21 19 19 19 -3 23 1 20 20 -2 19 2 22 21 20 18 -3 22 2 22 22 0 14 -5 26
-10 26 -19 0 3 27 124 150 113 114 151 141 144 104 -2 -10 2 -19 8 -21 8 -3
11 11 10 39 -1 39 1 43 21 40 19 -3 23 1 20 20 -2 19 2 22 20 20 19 -3 23 1
20 20 -2 19 2 22 20 20 19 -3 23 1 20 20 -2 19 2 23 22 20 18 -2 22 2 17 15
-9 23 39 72 65 66 15 -4 19 -1 17 18 -3 20 1 23 19 21 18 -3 22 2 21 28 -1 39
13 53 52 52 20 0 30 4 30 14 0 11 -6 13 -20 9 -13 -4 -20 -2 -20 7 0 16 511
528 527 528 6 0 9 -9 6 -20 -4 -14 0 -20 10 -20 11 0 15 9 15 30 -1 17 4 36
10 42 8 8 9 5 5 -11 -4 -15 -1 -21 11 -21 10 0 15 8 13 23 -2 18 2 21 21 19
20 -3 23 0 20 20 -2 19 1 22 19 20 19 -3 23 1 21 22 -2 24 -18 38 -18 16 0 -5
-5 -10 -12 -10 -6 0 -3 9 7 20 22 24 35 26 35 5 0 -8 7 -15 16 -15 9 0 14 8
13 18 -3 37 0 47 13 34 19 -19 30 -14 26 11 -2 18 1 22 20 20 19 -3 23 1 20
20 -2 18 1 21 21 19 20 -3 23 0 18 17 -7 29 34 72 62 64 15 -4 21 -1 21 11 0
9 -7 16 -15 16 -9 0 -12 6 -8 16 3 9 9 12 12 7 3 -4 16 -9 28 -11 19 -3 23 1
21 22 -1 14 -6 26 -11 26 -5 0 -4 7 3 15 18 21 29 19 23 -5 -4 -14 0 -20 11
-20 19 0 19 39 2 52 -10 7 170 198 186 198 4 0 7 -10 5 -21 -1 -12 4 -24 11
-26 8 -3 11 4 10 19 -3 19 1 23 20 20 15 -1 22 2 19 10 -2 7 -14 12 -25 10
-33 -5 -27 11 25 62 34 34 51 45 65 40 16 -5 19 -2 14 13 -8 27 83 117 108
107 15 -6 17 -3 12 12 -9 28 122 158 148 148 15 -6 17 -3 12 13 -8 26 43 77
69 67 14 -6 16 -3 11 13 -4 12 -1 25 9 33 10 8 15 9 15 1 0 -6 5 -11 11 -11 6
0 8 8 5 18 -8 26 84 115 108 106 15 -6 17 -3 12 13 -5 16 8 34 60 84 41 40 73
63 85 62 10 -2 19 2 19 7 0 6 -5 10 -11 10 -8 0 -7 5 1 15 7 9 21 13 31 10 11
-4 19 -2 19 4 0 6 -5 11 -11 11 -8 0 -7 5 1 15 8 10 21 13 33 9 16 -5 19 -3
13 11 -9 25 39 75 65 68 15 -4 19 -1 17 18 -3 20 1 24 20 21 19 -1 22 2 17 17
-3 10 1 24 10 31 10 8 15 9 15 1 0 -6 4 -11 10 -11 5 0 9 8 7 19 -3 28 422
461 454 461 5 0 9 -9 9 -20 0 -20 11 -26 23 -13 4 3 2 12 -4 19 -8 9 1 24 35
58 45 46 66 57 66 34 0 -9 3 -9 12 0 9 9 10 17 2 30 -8 12 -7 25 2 47 7 17 13
48 14 69 0 35 -6 45 -51 87 l-51 48 -322 2 c-596 4 -828 0 -846 -16 -8 -7 -27
-16 -42 -20 -15 -4 -32 -13 -39 -21 -6 -8 -17 -14 -25 -14 -7 0 -61 -47 -121
-104 -119 -116 -149 -138 -162 -117 -7 10 -15 11 -37 3 -16 -6 -24 -11 -17
-11 7 -1 17 -10 23 -21 9 -17 7 -22 -15 -32 -14 -6 -25 -17 -25 -24 0 -7 -9
-15 -19 -19 -10 -3 -21 -15 -24 -25 -3 -12 -14 -20 -27 -20 -21 0 -20 3 16 44
22 24 45 45 52 45 6 1 12 8 12 16 0 10 -8 14 -22 11 -15 -2 -23 -10 -23 -22 0
-14 -6 -18 -22 -17 -18 2 -22 -2 -20 -20 2 -17 -3 -22 -20 -20 -18 2 -22 -2
-20 -20 2 -17 -3 -22 -20 -20 -18 2 -22 -2 -20 -20 2 -18 -3 -22 -21 -19 -19
2 -22 -2 -17 -18 5 -17 2 -20 -20 -20 -21 0 -26 -4 -23 -22 2 -19 -1 -22 -19
-20 -15 2 -23 -2 -23 -12 0 -26 20 -29 43 -6 54 53 131 120 139 120 10 0 -23
-49 -34 -50 -10 0 -278 -272 -278 -282 0 -4 -5 -8 -10 -8 -6 0 -27 -18 -47
-40 -41 -45 -58 -50 -66 -20 -7 28 -29 25 -25 -2 2 -19 -1 -22 -19 -20 -28 4
-31 -18 -3 -25 29 -8 25 -31 -11 -64 -17 -16 -33 -29 -34 -29 -7 0 -95 -92
-95 -100 0 -9 -25 -20 -46 -20 -8 0 -14 9 -14 20 0 11 -5 20 -11 20 -5 0 -9
-8 -8 -17 6 -63 -14 -97 -99 -165 -27 -22 -41 -26 -67 -22 -33 5 -52 -7 -40
-26 4 -7 13 -7 26 0 22 12 24 7 9 -21 -12 -21 -49 -26 -46 -6 0 6 -3 14 -9 17
-6 3 -11 -12 -12 -34 -1 -23 -11 -48 -22 -60 -11 -12 -37 -40 -58 -64 -32 -36
-44 -43 -81 -45 -45 -2 -58 -19 -21 -27 21 -5 21 -6 4 -23 -17 -17 -18 -17
-32 3 -20 28 -33 16 -33 -29 0 -47 -17 -65 -44 -45 -21 15 -36 10 -36 -12 0
-8 9 -14 20 -14 28 0 25 -10 -14 -53 -37 -41 -72 -50 -61 -17 5 14 2 20 -10
20 -11 0 -15 -7 -13 -22 2 -19 -1 -22 -19 -20 -16 2 -23 -2 -23 -12 0 -9 9
-16 20 -16 23 0 26 -10 8 -28 -16 -16 -28 -15 -28 3 0 8 -9 15 -20 15 -13 0
-20 -7 -20 -20 0 -11 7 -20 15 -20 24 0 18 -12 -40 -74 -30 -32 -55 -62 -55
-66 0 -8 -24 -20 -40 -20 -4 0 -7 8 -6 17 0 10 -7 19 -16 21 -13 3 -18 -3 -18
-21 0 -20 -4 -24 -20 -20 -13 4 -20 0 -20 -9 0 -25 12 -29 38 -12 35 23 36 12
2 -21 -24 -23 -30 -25 -30 -12 0 11 -8 17 -25 17 -30 0 -35 -29 -5 -37 16 -4
18 -9 9 -24 -13 -25 -29 -24 -29 1 0 13 -7 20 -20 20 -13 0 -20 -7 -20 -20 0
-13 -7 -20 -20 -20 -13 0 -20 -7 -20 -20 0 -13 -7 -20 -20 -20 -15 0 -20 -7
-20 -25 0 -36 16 -31 66 22 24 25 47 43 51 39 4 -4 -11 -24 -33 -45 -22 -21
-43 -45 -47 -54 -4 -10 -11 -17 -16 -17 -6 0 -35 -24 -65 -54 -65 -63 -86 -74
-86 -46 0 11 -7 20 -15 20 -8 0 -15 -9 -15 -20 0 -11 5 -20 10 -20 16 0 12
-27 -5 -34 -10 -4 -15 1 -15 14 0 12 -7 20 -16 20 -11 0 -15 -6 -11 -20 4 -16
0 -20 -19 -20 -15 0 -24 -6 -24 -15 0 -8 9 -15 20 -15 31 0 24 -24 -19 -58
-44 -35 -63 -40 -59 -16 2 10 -3 19 -10 22 -9 3 -13 -3 -10 -19 2 -20 -1 -24
-20 -22 -19 3 -23 -1 -20 -20 2 -18 -1 -21 -19 -19 -26 4 -33 -24 -8 -30 10
-2 12 -8 6 -17 -8 -12 -12 -12 -26 2 -23 24 -35 13 -35 -32 0 -47 -17 -65 -44
-45 -23 16 -36 10 -36 -17 0 -11 7 -19 16 -19 14 0 14 -3 4 -15 -16 -19 -30
-19 -30 1 0 9 -7 14 -17 12 -14 -2 -17 -11 -15 -35 4 -35 -8 -46 -49 -45 -20
0 -29 -4 -29 -15 0 -10 6 -13 16 -9 11 4 15 0 12 -16 -4 -29 -24 -34 -31 -7
-10 36 -32 16 -32 -29 -1 -32 -8 -49 -30 -74 -17 -18 -33 -34 -37 -36 -3 -2
-19 -14 -35 -28 -27 -23 -46 -29 -87 -24 -11 1 -16 -3 -14 -12 3 -7 12 -12 22
-10 36 6 12 -35 -63 -109 -43 -43 -81 -85 -84 -93 -4 -9 -13 -16 -21 -16 -8 0
-30 -18 -47 -40 -35 -43 -54 -52 -46 -20 4 16 0 20 -17 20 -13 0 -25 -3 -29
-6 -11 -11 5 -34 24 -34 22 0 24 -11 7 -28 -19 -19 -49 -15 -46 6 2 9 -3 17
-9 16 -49 -4 -48 -3 -25 -20 26 -18 29 -42 5 -51 -10 -3 -26 -13 -35 -21 -15
-13 -17 -12 -15 6 0 12 9 23 19 25 10 3 18 11 18 17 0 7 -7 10 -16 6 -9 -3
-22 -6 -30 -6 -8 0 -11 -6 -8 -15 6 -15 -4 -19 -38 -16 -9 1 -19 -2 -22 -7 -8
-14 21 -35 39 -28 22 8 19 -21 -4 -34 -29 -15 -41 -12 -41 10 0 21 -8 24 -35
13 -15 -5 -15 -8 6 -24 20 -15 21 -19 10 -33 -7 -9 -18 -16 -24 -16 -5 0 -16
-8 -23 -17 -7 -10 -15 -15 -19 -12 -3 4 5 19 19 34 15 16 26 30 26 31 0 2 -14
4 -31 4 -26 0 -29 -3 -24 -20 5 -16 2 -20 -19 -20 -13 0 -32 -3 -40 -6 -15 -6
-15 -8 1 -20 10 -7 26 -14 36 -14 37 0 2 -40 -37 -40 -8 0 -29 -13 -47 -29
-37 -34 -69 -46 -69 -25 0 11 -20 14 -95 14 -54 0 -95 -4 -95 -10 0 -14 70
-30 118 -25 29 2 42 0 42 -9 0 -8 -27 -18 -72 -26 -40 -7 -100 -19 -133 -27
-46 -11 -181 -15 -575 -19 -376 -3 -539 -8 -605 -19 -49 -8 -139 -18 -200 -24
-198 -17 -389 -42 -440 -57 -27 -8 -79 -17 -115 -20 -36 -3 -78 -12 -95 -19
-16 -7 -48 -16 -70 -19 -22 -4 -78 -21 -125 -37 -47 -17 -105 -37 -130 -44
-45 -13 -87 -30 -167 -66 -23 -10 -49 -19 -57 -19 -9 0 -16 -4 -16 -10 0 -5
-19 -14 -42 -21 -24 -6 -57 -19 -74 -30 -17 -10 -38 -19 -45 -19 -16 0 -94
-38 -130 -63 -13 -10 -34 -17 -46 -17 -13 0 -23 -4 -23 -10 0 -5 -21 -20 -47
-33 -110 -54 -151 -78 -163 -92 -17 -20 -61 -20 -54 0 5 12 -3 15 -35 15 -41
0 -53 -11 -28 -27 6 -4 20 -6 29 -5 28 5 21 -27 -8 -38 -34 -13 -34 -13 -34
10 0 16 -7 20 -30 20 -36 0 -39 -17 -5 -30 30 -11 32 -26 6 -35 -10 -3 -26
-14 -36 -25 -21 -24 -55 -26 -55 -5 0 12 -7 14 -27 9 -36 -9 -42 -14 -15 -14
33 0 27 -31 -11 -61 -43 -34 -71 -45 -63 -24 7 20 -14 28 -45 16 l-24 -9 27
-11 c19 -7 26 -15 22 -26 -3 -8 -11 -15 -17 -15 -6 0 -29 -17 -50 -37 -25 -25
-41 -34 -44 -25 -3 6 -16 12 -29 12 -19 0 -24 -5 -24 -26 0 -21 -4 -24 -20
-19 -17 5 -20 2 -20 -20 0 -22 -4 -26 -19 -22 -14 3 -18 1 -14 -9 5 -14 -48
-74 -66 -74 -6 0 -11 -5 -11 -10 0 -6 -21 -31 -48 -55 -38 -36 -54 -45 -84
-45 -34 0 -38 -3 -38 -26 0 -22 -4 -25 -20 -21 -17 4 -20 2 -15 -15 5 -14 1
-21 -14 -25 -11 -3 -23 -14 -26 -24 -5 -16 -13 -18 -46 -13 -32 5 -39 4 -39
-10 0 -9 8 -16 20 -16 26 0 26 -26 1 -40 -30 -15 -40 -12 -34 11 5 17 2 20
-13 17 -11 -2 -17 -11 -15 -19 2 -8 6 -22 8 -31 4 -13 -5 -19 -36 -28 -24 -6
-41 -17 -41 -25 0 -10 -11 -15 -33 -15 -25 0 -39 7 -55 30 -12 16 -22 38 -22
48 0 10 -9 27 -20 37 -12 10 -18 25 -15 32 3 9 0 11 -6 7 -11 -6 -189 162
-189 178 0 5 12 8 27 8 14 0 23 3 20 7 -11 10 -57 13 -57 3 0 -5 -12 -2 -27 6
-16 7 -32 14 -37 14 -5 0 -17 6 -25 13 -26 21 -120 54 -209 73 -92 20 -100 31
-61 85 15 21 26 28 40 24 11 -4 19 -2 19 4 0 6 -5 11 -10 11 -6 0 -7 7 -2 18
5 9 15 30 23 47 8 16 23 31 33 33 11 3 16 0 12 -7 -9 -14 3 -53 14 -46 10 6 9
75 -2 75 -4 0 -8 5 -8 10 0 18 40 11 41 -7 0 -15 2 -15 9 2 13 31 12 45 -5 45
-22 0 -18 17 13 56 28 36 61 46 58 18 0 -9 4 -19 10 -21 6 -2 11 9 11 27 0 16
-4 30 -9 30 -5 0 -6 5 -3 10 4 6 16 10 28 8 18 -2 22 2 22 22 0 21 4 24 24 22
20 -3 23 0 18 17 -4 17 -1 21 20 21 24 0 25 2 19 38 -5 37 -3 41 64 107 39 38
71 65 71 60 1 -6 2 -16 3 -24 2 -29 23 -21 23 9 0 16 -5 30 -10 30 -5 0 -4 7
3 15 7 9 21 13 31 10 15 -5 18 -2 17 17 -3 18 1 23 19 21 18 -2 22 2 20 20 -2
17 3 22 21 20 12 -2 22 2 22 7 0 6 -5 10 -11 10 -8 0 -8 5 1 15 10 12 16 13
26 4 14 -12 16 -9 18 26 1 15 7 19 24 17 20 -3 23 0 20 20 -2 19 1 23 20 21
19 -3 23 1 20 20 -2 18 1 22 19 20 18 -2 22 2 20 20 -2 18 2 21 21 19 20 -3
23 0 20 20 -2 17 2 23 17 24 35 2 38 4 26 18 -9 10 -8 16 4 26 8 7 15 8 15 3
0 -5 14 -10 30 -10 18 0 29 5 27 11 -2 6 -14 10 -25 8 -25 -4 -29 10 -7 28 8
7 15 8 15 3 0 -6 13 -10 30 -11 25 -1 29 3 28 24 -2 15 -6 20 -12 14 -15 -15
-36 -12 -30 4 5 12 86 76 97 76 3 0 3 -9 0 -20 -4 -14 0 -20 11 -20 10 0 17 7
15 18 -3 37 0 47 13 34 19 -19 30 -14 26 11 -2 18 1 22 20 20 17 -2 22 2 22
22 0 25 15 42 24 27 7 -12 56 -9 55 3 0 6 -9 9 -20 8 -27 -4 -24 22 7 46 20
15 37 19 80 17 30 -1 54 1 54 6 0 4 -9 8 -20 8 -30 0 -25 34 8 56 42 29 56 32
68 16 6 -8 16 -12 23 -8 9 6 9 11 1 21 -15 18 -2 24 47 19 23 -2 45 1 48 5 7
12 -21 22 -40 15 -23 -9 -19 23 4 36 24 13 44 13 36 1 -9 -16 10 -21 41 -11
24 7 25 8 7 9 -28 1 -37 15 -19 30 8 7 17 8 19 4 8 -13 63 -10 57 2 -3 6 -15
9 -28 7 -20 -3 -22 0 -13 16 12 22 52 37 48 18 -2 -12 72 -16 80 -3 2 4 -7 7
-21 7 -19 0 -26 5 -26 20 0 23 10 26 29 8 11 -11 13 -10 9 2 -8 24 11 50 37
50 14 0 25 -4 25 -10 0 -5 5 -10 11 -10 6 0 9 6 6 14 -3 8 0 22 8 32 10 14 16
16 27 7 18 -15 100 -15 95 1 -2 6 -12 11 -23 11 -31 0 -26 29 9 53 34 23 57
28 57 14 0 -11 88 -13 95 -2 7 12 -29 22 -50 14 -13 -5 -16 -2 -13 12 3 20 48
33 48 15 0 -6 20 -11 46 -11 50 0 59 22 11 28 -15 2 -27 9 -27 15 0 13 45 37
67 37 7 0 13 4 13 10 0 9 162 90 212 106 12 4 28 13 36 20 7 8 25 17 40 21 15
3 32 12 38 18 7 6 52 24 100 40 49 15 93 32 98 36 6 5 19 9 30 9 16 0 116 33
211 70 75 29 110 41 185 63 47 14 99 28 115 32 17 3 53 11 80 16 28 6 64 19
81 30 17 10 53 22 80 25 27 3 72 12 99 20 63 17 312 54 367 54 24 0 45 6 52
15 8 10 42 16 116 20 58 4 119 13 135 20 40 18 140 33 255 40 52 3 127 8 167
11 68 5 71 5 66 -14 -4 -16 1 -21 22 -24 24 -3 30 -10 42 -57 17 -67 21 -294
9 -508 -8 -143 -7 -165 7 -187 20 -30 22 -56 5 -56 -8 0 -9 -3 -2 -10 17 -17
181 -25 198 -11 11 9 19 9 34 0 26 -16 59 -4 43 15 -15 17 0 29 25 19 14 -5
16 -2 12 15 -3 12 0 29 8 39 13 17 13 17 14 1 0 -10 4 -18 10 -18 5 0 9 10 7
23 -2 17 3 22 20 20 18 -2 22 2 20 20 -2 18 3 22 22 19 19 -2 22 1 18 19 -8
28 38 76 57 60 7 -6 16 -8 19 -4 12 12 7 23 -10 23 -16 1 -16 2 1 15 13 10 23
11 31 5 14 -11 25 -3 25 18 0 9 -6 12 -17 8 -17 -6 -17 -5 0 8 10 8 27 11 39
8 18 -4 20 -2 15 18 -8 31 32 71 63 63 20 -5 22 -3 18 15 -4 15 9 36 54 83 52
53 65 62 99 63 45 2 62 14 31 23 -22 5 -32 43 -11 43 5 0 42 31 82 70 54 53
76 69 92 64 15 -4 16 -3 6 4 -19 14 -5 32 26 32 19 0 24 4 19 16 -8 20 75 104
102 104 9 0 23 9 30 20 8 13 23 20 43 20 26 0 30 3 27 23 -2 18 1 21 20 19 20
-3 23 0 20 20 -2 19 1 23 19 21 18 -2 22 2 20 20 -2 18 3 22 22 19 19 -2 22 2
18 18 -3 10 1 24 9 31 10 8 14 8 14 0 0 -6 5 -11 11 -11 6 0 8 8 5 18 -4 13
18 41 83 103 83 81 90 86 124 83 33 -4 37 -2 34 18 -2 19 2 22 21 20 20 -3 23
0 20 20 -2 19 1 22 20 20 18 -3 22 1 22 26 0 34 38 66 65 55 13 -4 16 -1 13
18 -2 20 1 24 21 21 19 -2 22 2 18 18 -3 10 1 24 9 31 10 8 14 8 14 0 0 -6 4
-11 10 -11 5 0 9 10 7 23 -2 18 3 22 21 20 19 -3 23 1 20 20 -2 18 1 21 21 19
20 -3 23 0 18 17 -3 11 1 25 9 32 10 8 14 8 14 0 0 -6 5 -11 11 -11 7 0 9 9 6
21 -8 28 38 72 66 63 15 -5 18 -2 13 13 -4 13 8 32 40 66 51 52 67 58 62 25
-2 -11 2 -23 8 -25 6 -2 11 9 11 27 0 16 -5 30 -10 30 -5 0 -4 6 2 14 8 10 26
13 52 11 28 -3 39 0 36 8 -2 7 -14 11 -27 9 -15 -3 -21 1 -18 10 3 7 15 12 28
10 17 -2 21 2 16 14 -4 12 11 36 51 78 67 71 79 80 88 65 4 -6 -2 -13 -14 -16
-30 -8 -26 -22 5 -19 21 2 28 9 30 30 1 14 -2 26 -9 26 -25 0 13 23 43 25 39
3 43 8 43 45 0 33 40 85 57 75 17 -10 11 -25 -10 -25 -11 0 -20 -5 -20 -11 0
-6 9 -8 23 -3 29 9 29 8 31 41 2 16 8 38 14 48 11 19 11 19 12 1 0 -12 5 -16
16 -12 9 3 21 6 27 6 7 0 13 11 13 25 1 14 -2 25 -7 25 -5 0 -9 -9 -9 -20 0
-21 -15 -27 -25 -10 -7 12 56 73 65 62 9 -12 61 -11 57 2 -2 6 -14 10 -25 8
-33 -5 -27 11 25 62 34 32 53 44 66 40 15 -5 18 -2 13 13 -4 14 13 37 69 93
41 41 75 70 75 64 0 -6 14 -11 30 -11 18 0 29 5 27 11 -2 6 -14 10 -25 8 -12
-2 -22 1 -22 6 0 16 192 195 199 185 3 -4 16 -9 29 -11 20 -3 22 0 19 32 -3
25 1 40 14 52 11 10 19 13 19 8 0 -5 12 -11 26 -12 25 -2 26 0 21 32 -4 27 0
39 23 65 18 19 34 29 44 25 9 -4 16 -1 16 6 0 9 3 10 13 1 17 -14 27 -4 27 26
0 26 -17 31 -26 8 -4 -8 -10 -15 -15 -15 -13 0 -11 34 2 47 6 6 15 29 20 50 4
21 11 50 15 65 10 43 -4 95 -37 132 l-29 34 -353 4 c-308 3 -356 6 -386 21
-22 11 -56 17 -95 16 -43 0 -55 -3 -41 -9 18 -8 17 -9 -8 -9 -16 -1 -26 3 -22
9 3 6 -3 10 -15 10 -12 0 -18 -4 -15 -10 3 -5 -3 -10 -14 -10 -12 0 -21 4 -21
9 0 5 -66 12 -147 15 -82 4 -181 13 -221 21 -40 8 -105 15 -145 15 -40 0 -97
7 -127 16 -30 9 -102 20 -160 24 -58 5 -127 16 -155 24 -31 10 -110 18 -205
22 -85 3 -191 12 -235 19 -44 8 -143 16 -220 20 -77 3 -246 11 -375 17 -267
14 -320 14 -845 -1 -376 -11 -490 -18 -655 -40 -47 -6 -146 -15 -220 -21 -74
-5 -162 -14 -195 -19 -163 -26 -216 -34 -280 -41 -38 -5 -90 -13 -115 -20 -25
-6 -74 -15 -110 -20 -36 -5 -94 -18 -129 -30 -36 -11 -83 -23 -105 -26 -38 -4
-72 -13 -225 -58 -29 -9 -58 -16 -65 -16 -6 0 -47 -11 -91 -25 -44 -13 -107
-32 -140 -41 -33 -10 -67 -23 -76 -31 -8 -7 -25 -13 -37 -13 -12 0 -41 -9 -65
-20 -23 -11 -107 -41 -187 -68 -80 -27 -160 -57 -177 -66 -18 -9 -43 -16 -56
-16 -14 0 -30 -7 -37 -15 -7 -8 -23 -15 -35 -15 -12 0 -28 -7 -35 -15 -7 -8
-20 -15 -29 -15 -9 0 -40 -13 -69 -29 -29 -16 -66 -32 -82 -36 -17 -4 -30 -10
-30 -15 0 -4 -15 -11 -34 -14 -19 -4 -39 -13 -46 -21 -7 -8 -18 -15 -25 -15
-14 0 -91 -36 -210 -97 -38 -20 -83 -42 -100 -50 -16 -8 -37 -18 -45 -24 -67
-41 -160 -77 -160 -61 0 4 -23 9 -51 10 -37 1 -50 -1 -46 -10 2 -8 20 -12 46
-11 38 2 40 0 31 -18 -10 -19 -60 -28 -60 -11 0 5 -21 10 -46 10 -33 2 -45 -1
-41 -10 2 -7 18 -12 36 -12 32 2 40 -13 19 -34 -17 -17 -38 -15 -38 3 0 11
-12 15 -44 15 -25 0 -47 -4 -51 -9 -8 -13 24 -29 46 -24 13 4 19 0 19 -11 0
-10 -20 -25 -52 -40 -29 -13 -62 -33 -72 -45 -22 -24 -56 -28 -56 -6 0 11 -11
15 -40 15 -22 0 -40 -4 -40 -9 0 -17 26 -30 49 -24 21 5 22 4 12 -15 -15 -27
-43 -36 -118 -37 -35 0 -63 -4 -62 -10 0 -5 13 -9 29 -9 47 3 36 -39 -13 -51
-16 -4 -43 -20 -60 -36 -32 -30 -62 -38 -69 -18 -2 7 -14 8 -38 1 -26 -8 -29
-10 -12 -11 15 -1 22 -7 22 -21 0 -11 -4 -20 -9 -20 -4 0 -22 -13 -39 -30 -18
-16 -40 -30 -49 -31 -10 -1 -37 -2 -60 -3 -24 0 -41 -5 -39 -11 1 -5 10 -9 20
-7 31 6 17 -35 -22 -62 -43 -30 -62 -33 -62 -11 0 12 -7 14 -27 9 -36 -9 -42
-14 -15 -14 36 0 33 -16 -8 -54 -43 -39 -60 -45 -60 -21 0 17 -18 19 -40 5
-10 -6 -11 -10 -2 -10 19 0 15 -50 -5 -57 -10 -4 -23 -14 -30 -22 -11 -15 -12
-14 -13 0 0 11 -9 16 -30 16 -25 0 -30 -4 -28 -21 2 -13 -2 -20 -11 -18 -7 1
-22 0 -33 -4 -19 -6 -19 -7 -4 -22 14 -15 18 -14 44 11 31 30 42 34 42 13 0
-14 -68 -66 -88 -66 -7 0 -12 7 -12 15 0 8 -5 15 -11 15 -6 0 -9 -9 -6 -20 3
-10 -1 -24 -9 -31 -9 -7 -14 -8 -14 -1 0 6 -11 9 -25 8 -14 -2 -25 -7 -25 -12
1 -5 8 -8 16 -6 36 7 5 -36 -94 -132 -59 -57 -127 -121 -152 -141 -25 -20 -49
-43 -53 -51 -4 -8 -15 -14 -23 -14 -8 0 -17 -7 -20 -15 -4 -8 -11 -15 -16 -15
-6 0 -29 -21 -52 -46 -33 -35 -50 -46 -80 -49 -44 -4 -42 -2 -51 -38 -6 -23
-4 -26 9 -21 11 4 15 13 10 27 -5 15 -3 19 9 14 8 -3 20 0 26 6 8 8 11 8 11
-1 0 -15 -85 -102 -99 -102 -6 0 -11 -6 -11 -14 0 -8 -9 -18 -20 -21 -11 -3
-20 -13 -20 -21 0 -7 -9 -19 -20 -26 -11 -7 -20 -18 -20 -25 0 -7 -6 -16 -13
-20 -7 -4 -20 -18 -29 -31 -32 -47 -227 -242 -242 -242 -10 0 -16 9 -16 22 0
27 -5 21 -14 -14 -5 -21 -3 -28 9 -28 8 0 15 -2 15 -4 0 -18 -52 -84 -120
-154 -44 -46 -80 -87 -80 -92 0 -4 -9 -10 -21 -13 -14 -4 -23 1 -29 16 -5 12
-9 17 -9 10 -1 -6 -4 -18 -7 -27 -4 -11 -1 -16 10 -16 20 0 20 -3 -1 -38 -31
-48 -77 -102 -89 -102 -7 0 -14 9 -17 20 -8 30 -22 24 -23 -10 -1 -19 4 -30
12 -30 8 0 14 -2 14 -4 0 -15 -50 -86 -82 -117 -21 -20 -38 -41 -38 -47 0 -5
-7 -12 -15 -16 -8 -3 -15 -14 -15 -24 0 -10 -18 -38 -40 -62 -22 -24 -40 -49
-40 -55 0 -17 -63 -95 -76 -95 -6 0 -14 9 -17 20 -8 32 -24 23 -25 -15 -1 -25
3 -35 13 -35 21 0 19 -8 -11 -52 -30 -42 -51 -49 -56 -18 -5 33 -23 28 -26 -7
-3 -27 0 -33 16 -33 26 0 19 -34 -11 -55 -25 -18 -32 -13 -18 13 7 14 7 24 -4
38 -12 16 -14 17 -20 4 -3 -9 -4 -27 -3 -40 3 -21 -1 -25 -19 -23 -19 2 -23
-2 -23 -27 0 -36 12 -38 33 -7 8 12 18 19 21 16 9 -9 -17 -71 -37 -87 -8 -7
-28 -37 -42 -65 -15 -29 -32 -56 -39 -62 -7 -5 -16 -22 -19 -37 -4 -15 -14
-33 -22 -42 -8 -8 -15 -21 -15 -28 0 -21 -29 -58 -46 -58 -11 0 -12 4 -5 18 6
11 6 24 0 35 -17 30 -29 18 -29 -28 0 -34 4 -45 16 -45 19 0 11 -33 -18 -69
-10 -14 -27 -44 -38 -68 -10 -24 -24 -43 -29 -43 -6 0 -11 -8 -11 -19 0 -10
-8 -29 -19 -42 -10 -13 -22 -39 -26 -57 -4 -18 -13 -36 -21 -39 -8 -3 -14 -13
-14 -22 0 -9 -20 -58 -45 -108 -24 -50 -47 -102 -51 -117 -3 -14 -12 -30 -20
-37 -8 -6 -14 -18 -14 -26 0 -8 -9 -31 -19 -51 -11 -20 -41 -90 -66 -154 -26
-65 -51 -118 -56 -118 -5 0 -9 -13 -9 -28 0 -15 -9 -45 -20 -67 -11 -22 -20
-44 -20 -50 0 -5 -6 -22 -14 -37 -8 -14 -19 -43 -26 -65 -7 -21 -19 -47 -26
-58 -8 -11 -14 -29 -14 -40 0 -11 -7 -33 -16 -50 -9 -16 -22 -52 -30 -80 -17
-67 -32 -112 -55 -160 -11 -22 -19 -51 -19 -65 0 -14 -9 -45 -20 -69 -11 -24
-20 -52 -20 -62 0 -10 -9 -42 -19 -71 -11 -29 -22 -71 -26 -93 -4 -21 -13 -52
-21 -67 -8 -15 -14 -43 -14 -63 0 -20 -9 -57 -19 -83 -11 -26 -22 -71 -25
-100 -3 -29 -12 -67 -21 -84 -8 -17 -15 -48 -15 -68 0 -21 -9 -66 -19 -101
-10 -35 -22 -99 -25 -141 -3 -42 -12 -94 -20 -115 -8 -21 -17 -96 -21 -168 -4
-85 -11 -135 -19 -145 -9 -9 -17 -57 -21 -125 -4 -60 -13 -133 -21 -163 -8
-29 -14 -83 -14 -120 0 -37 -8 -114 -17 -172 -14 -86 -17 -182 -17 -530 0
-295 3 -445 12 -490 7 -36 15 -132 18 -215 3 -82 10 -163 15 -179 5 -16 14
-81 20 -145 5 -64 15 -125 21 -136 6 -11 15 -80 20 -155 5 -74 13 -143 18
-152 14 -26 30 -136 30 -211 0 -42 6 -80 16 -98 8 -17 18 -53 21 -82 3 -29 14
-78 24 -109 11 -32 19 -71 19 -88 0 -17 7 -41 15 -54 9 -13 18 -48 21 -77 3
-30 12 -68 20 -85 7 -16 16 -50 20 -75 4 -24 10 -48 14 -54 5 -5 13 -30 20
-55 7 -25 19 -60 27 -78 8 -17 17 -56 20 -85 3 -28 11 -59 18 -67 7 -8 17 -35
23 -60 13 -54 37 -128 63 -192 10 -26 19 -55 19 -65 0 -10 9 -31 20 -48 11
-16 20 -39 20 -50 0 -12 5 -26 11 -32 18 -18 69 -151 69 -179 0 -13 4 -24 10
-24 5 0 16 -23 24 -50 8 -28 22 -60 30 -72 9 -12 16 -33 16 -45 0 -13 4 -23
10 -23 5 0 14 -18 20 -41 6 -22 20 -55 31 -72 10 -18 19 -42 19 -55 0 -12 7
-25 15 -28 8 -3 17 -21 21 -40 3 -19 10 -37 15 -40 5 -3 18 -23 29 -45 l20
-39 66 0 65 0 84 84 c47 47 85 89 85 94 0 5 11 17 25 26 30 20 215 201 215
211 0 10 98 105 109 105 5 0 13 9 16 20 3 11 13 20 21 20 8 0 14 5 14 10 0 19
100 136 144 169 23 17 53 46 66 64 13 17 90 97 170 177 80 80 168 170 197 200
28 30 75 75 104 100 29 25 57 51 63 59 16 21 135 141 181 182 53 47 115 117
115 128 0 4 10 21 22 36 20 26 22 38 20 158 -2 76 -8 152 -17 181 -8 28 -17
89 -21 136 -4 47 -11 94 -17 105 -6 11 -17 128 -23 260 -7 132 -18 314 -24
405 -14 206 -8 1098 8 1150 6 19 16 114 22 212 10 170 31 296 72 443 11 39 22
87 25 108 3 20 9 40 14 43 5 3 9 14 9 25 0 22 42 104 66 129 12 12 14 10 14
-15 0 -17 4 -37 10 -45 8 -12 10 -12 16 3 5 15 3 50 -8 112 -2 12 3 21 15 23
13 3 17 -3 17 -28 0 -19 4 -29 10 -25 6 4 10 16 9 28 -1 12 -1 38 -1 56 2 27
5 32 14 23 22 -22 29 -13 26 31 -3 39 -1 42 21 39 22 -2 23 0 17 38 -5 31 -3
42 9 46 8 3 17 21 21 40 10 52 24 51 24 0 0 -25 4 -46 10 -46 12 0 24 45 15
59 -3 6 -3 16 1 22 3 6 27 -36 51 -93 25 -56 52 -112 59 -123 8 -11 14 -27 14
-35 0 -17 22 -42 180 -206 68 -71 99 -112 104 -134 3 -18 13 -38 22 -45 14
-10 15 -25 5 -129 -6 -65 -15 -124 -20 -130 -6 -7 -13 -50 -17 -97 -4 -46 -13
-93 -20 -104 -8 -12 -18 -50 -23 -87 -5 -36 -14 -74 -19 -84 -5 -11 -13 -64
-16 -118 -5 -62 -14 -111 -24 -130 -15 -28 -17 -96 -17 -726 0 -531 3 -700 12
-716 7 -12 17 -66 23 -120 6 -55 15 -110 20 -124 4 -14 13 -52 20 -85 6 -33
18 -82 25 -110 8 -27 26 -103 41 -168 15 -65 31 -120 36 -123 4 -3 8 -16 8
-29 0 -13 4 -27 10 -30 5 -3 10 -24 10 -45 0 -21 5 -42 10 -45 13 -8 13 -85 0
-85 -5 0 -10 -18 -10 -39 0 -33 -7 -46 -44 -82 -36 -35 -51 -43 -82 -43 -37
-1 -39 -2 -36 -31 3 -24 2 -27 -10 -17 -10 7 -24 8 -44 3 -23 -8 -25 -9 -7
-10 29 -1 37 -16 17 -32 -13 -10 -17 -10 -26 2 -8 11 -9 10 -4 -5 9 -27 -41
-78 -67 -70 -16 5 -19 3 -13 -11 10 -26 -41 -77 -67 -69 -16 5 -19 3 -13 -11
10 -26 -41 -77 -68 -69 -18 6 -19 5 -9 -8 16 -18 7 -28 -24 -28 -20 0 -23 -4
-18 -20 5 -17 2 -20 -20 -20 -21 0 -26 -4 -23 -22 2 -19 -1 -22 -19 -20 -19 3
-23 -1 -20 -20 2 -19 -2 -22 -21 -20 -20 3 -23 0 -20 -20 2 -19 -1 -23 -19
-21 -18 2 -22 -2 -20 -20 2 -17 -3 -22 -20 -20 -18 2 -22 -2 -20 -20 2 -18 -2
-21 -21 -19 -20 3 -23 0 -20 -20 2 -19 -1 -22 -19 -20 -20 3 -22 -1 -20 -30 5
-44 -6 -56 -48 -51 -32 3 -35 1 -35 -22 0 -22 -4 -25 -20 -20 -16 5 -20 2 -18
-17 3 -19 -1 -23 -20 -21 -19 3 -23 -1 -20 -20 2 -18 -1 -22 -19 -20 -18 2
-22 -2 -20 -20 2 -18 -2 -21 -21 -19 -20 3 -23 0 -20 -20 2 -19 -1 -22 -20
-20 -20 3 -23 0 -20 -20 2 -19 -1 -23 -19 -21 -18 2 -22 -2 -20 -20 2 -17 -3
-22 -20 -20 -18 2 -22 -2 -20 -20 2 -17 -2 -21 -20 -19 -18 3 -22 -2 -21 -28
1 -39 -13 -53 -52 -52 -18 0 -30 -4 -30 -12 0 -20 12 -27 27 -15 7 6 13 7 13
2 0 -17 -32 -53 -61 -68 -26 -14 -29 -14 -29 0 0 8 -7 15 -16 15 -10 0 -14 -7
-12 -22 2 -19 -1 -23 -19 -21 -18 2 -22 -2 -20 -20 2 -18 -2 -21 -21 -19 -20
3 -23 0 -20 -20 2 -19 -1 -22 -20 -20 -20 3 -23 0 -20 -20 2 -19 -1 -22 -20
-20 -20 3 -23 0 -20 -20 2 -19 -1 -23 -19 -21 -18 2 -23 -2 -23 -22 0 -13 -5
-27 -10 -30 -6 -3 -10 -2 -10 4 0 5 -11 8 -25 7 -32 -3 -45 -16 -17 -16 28 0
28 -23 1 -49 -15 -14 -32 -19 -60 -16 -35 3 -38 1 -36 -18 2 -18 -3 -21 -21
-19 -15 1 -22 -2 -19 -10 2 -7 12 -12 21 -12 32 3 15 -28 -52 -91 -66 -64 -82
-74 -82 -55 0 6 -11 10 -25 10 -21 0 -25 -5 -25 -32 0 -25 -3 -29 -12 -20 -19
19 -30 14 -26 -10 2 -18 -2 -23 -18 -21 -15 2 -20 -3 -20 -20 1 -17 -4 -21
-22 -19 -16 2 -22 -2 -22 -17 0 -11 4 -23 10 -26 15 -9 12 -35 -4 -35 -8 0
-17 11 -20 25 -4 14 -11 23 -16 20 -15 -9 -12 -61 3 -74 10 -8 12 -32 9 -92
-4 -71 -2 -84 17 -109 23 -31 28 -60 10 -60 -13 0 -8 -70 6 -73 6 -1 11 8 13
20 2 13 9 23 17 23 20 0 46 -47 41 -76 -3 -14 -2 -40 1 -57 6 -28 7 -29 14 -9
10 26 37 29 46 5 4 -10 15 -24 25 -31 22 -16 24 -42 3 -42 -8 0 -15 -7 -15
-15 0 -9 8 -14 23 -12 17 2 22 -3 22 -23 0 -16 5 -24 14 -22 24 5 44 -7 34
-21 -12 -16 -11 -57 2 -56 6 0 9 9 8 20 -3 21 17 25 35 7 17 -17 15 -38 -3
-38 -8 0 -15 -7 -15 -16 0 -10 7 -14 22 -12 21 3 23 -1 22 -39 -1 -24 2 -43 7
-43 5 0 9 9 9 20 0 30 28 25 61 -12 40 -41 46 -57 42 -96 -2 -29 0 -33 20 -30
18 2 21 -1 19 -20 -3 -18 1 -22 24 -22 21 0 25 -4 21 -20 -4 -16 0 -20 18 -20
25 0 41 -15 27 -24 -12 -7 -9 -57 3 -54 6 2 9 14 7 27 -3 23 -2 24 20 9 13 -8
33 -30 46 -49 20 -29 21 -35 8 -37 -25 -5 -19 -32 7 -29 17 2 22 -3 20 -20 -2
-18 2 -22 20 -20 18 2 22 -3 19 -22 -2 -18 2 -22 14 -17 9 4 23 1 30 -5 12 -9
12 -15 2 -27 -11 -13 -10 -14 8 -8 29 9 96 -60 74 -75 -12 -9 -11 -10 4 -5 15
5 35 -10 86 -62 63 -64 67 -72 63 -106 -3 -34 -2 -37 19 -34 19 2 22 -1 20
-19 -2 -15 2 -23 11 -23 21 0 28 12 16 27 -9 9 -8 13 0 13 6 0 50 -37 96 -82
64 -61 84 -86 80 -100 -5 -14 -2 -17 17 -16 18 3 23 -1 21 -19 -2 -18 2 -22
20 -20 17 2 22 -3 20 -20 -2 -13 2 -23 7 -23 6 0 10 5 10 11 0 8 4 8 14 0 8
-7 12 -21 9 -31 -4 -16 -1 -20 18 -18 20 3 23 -1 21 -19 -3 -19 1 -23 22 -21
14 1 26 6 26 11 0 14 47 -20 84 -61 36 -39 37 -52 5 -52 -10 0 -19 -4 -19 -9
0 -10 39 -9 57 2 14 9 23 -2 23 -28 0 -17 6 -21 34 -22 37 -1 86 -28 86 -47 0
-7 -9 -12 -20 -12 -10 1 -20 -3 -22 -9 -2 -5 12 -11 30 -12 17 -1 32 3 32 8 0
6 5 7 10 4 6 -3 10 -17 10 -31 0 -20 4 -25 23 -22 18 2 22 -1 20 -19 -2 -18 2
-22 20 -20 17 2 22 -3 20 -20 -2 -15 3 -23 13 -23 11 0 14 5 10 16 -5 12 -2
15 10 10 8 -3 20 -6 24 -6 5 0 16 -12 24 -27 8 -16 18 -27 23 -25 4 1 9 -9 11
-23 3 -21 8 -25 38 -25 21 0 37 -6 40 -15 4 -8 10 -13 14 -10 5 3 22 -7 39
-21 36 -30 42 -59 11 -49 -14 4 -20 2 -20 -8 0 -11 11 -14 43 -13 38 1 42 -1
39 -22 -3 -23 12 -29 37 -13 21 13 81 -37 81 -68 0 -17 4 -22 16 -17 23 9 84
-20 123 -59 19 -19 30 -36 25 -37 -5 0 -13 -2 -19 -3 -5 -2 -16 -3 -23 -4 -7
0 -11 -5 -8 -9 3 -5 31 -7 62 -6 49 3 61 0 81 -20 13 -13 36 -27 51 -31 15 -4
33 -11 39 -17 16 -13 17 -42 2 -33 -15 10 -61 -4 -54 -15 8 -12 77 -8 88 5 6
6 10 6 14 -2 2 -7 13 -13 23 -13 9 0 37 -18 61 -40 24 -22 51 -40 60 -40 20 0
69 -37 69 -52 0 -6 -10 -8 -24 -4 -28 7 -58 -2 -50 -15 6 -11 77 -7 85 5 10
12 99 -31 99 -48 0 -8 -11 -16 -27 -18 -45 -5 -40 -27 6 -26 28 0 41 5 41 14
0 11 13 8 50 -11 53 -27 65 -51 28 -57 -38 -5 -33 -28 6 -28 25 0 36 4 36 15
0 8 3 15 6 15 16 0 161 -85 173 -101 8 -11 26 -19 42 -19 18 0 32 -7 39 -20 6
-11 19 -20 29 -20 10 0 30 -9 44 -20 14 -11 32 -20 40 -20 8 0 25 -8 38 -18
13 -11 101 -56 194 -101 94 -45 183 -88 198 -96 16 -8 34 -15 40 -15 7 0 59
-23 115 -50 57 -28 110 -50 117 -50 8 0 17 -5 20 -10 3 -5 13 -10 22 -10 8 0
29 -7 47 -15 38 -18 193 -74 336 -122 58 -19 125 -43 150 -53 25 -11 61 -22
80 -26 19 -4 41 -10 50 -14 66 -32 114 -50 135 -50 32 0 177 -40 401 -111 156
-49 279 -79 379 -90 44 -5 98 -15 120 -23 22 -8 94 -17 160 -21 66 -3 156 -12
200 -20 196 -35 315 -47 525 -56 124 -5 245 -14 270 -21 63 -17 964 -18 1035
-1 28 6 140 15 250 18 110 4 229 13 265 20 36 8 97 17 135 20 39 4 102 13 140
20 39 7 111 16 160 20 50 4 108 13 130 21 22 8 81 18 130 23 50 5 108 16 130
24 22 9 54 16 72 17 18 0 42 4 55 9 13 5 50 15 83 21 33 7 84 21 113 31 29 11
65 19 80 19 15 0 45 9 68 19 23 10 65 22 95 26 30 4 63 14 74 21 11 8 31 14
45 14 14 0 30 4 36 8 14 13 87 32 120 32 16 0 53 11 82 25 30 14 66 25 80 25
15 0 36 7 46 15 11 8 28 15 39 15 10 0 42 11 70 24 74 34 143 56 173 56 15 0
43 9 63 19 41 22 153 66 193 76 14 4 34 15 44 26 9 10 23 19 30 19 7 0 28 6
46 14 18 7 51 19 73 26 22 7 66 25 98 41 40 20 63 27 74 21 11 -7 12 -11 4
-16 -6 -4 -11 -11 -11 -17 0 -12 67 -12 75 1 3 6 2 10 -2 10 -5 0 -18 6 -28
14 -16 12 -17 16 -6 30 7 9 21 16 31 16 10 0 20 6 23 13 3 7 36 26 73 41 38
15 76 32 84 37 15 9 39 21 70 34 8 3 33 17 55 30 22 13 81 45 130 70 50 26 97
53 106 61 18 16 49 19 49 4 0 -5 21 -10 46 -10 50 0 59 22 11 28 -46 6 -30 26
57 71 46 24 97 52 113 62 31 21 63 25 63 8 0 -6 15 -9 35 -7 38 3 45 23 8 23
-43 -1 -27 33 27 59 27 13 67 37 87 53 43 33 73 47 73 33 0 -12 64 -7 68 5 1
6 -7 11 -18 13 -36 6 -18 34 40 65 30 15 62 34 70 41 26 22 83 47 89 38 7 -10
61 -10 61 1 0 4 -11 7 -25 7 -34 0 -32 10 13 53 38 38 77 50 66 22 -7 -16 6
-18 46 -5 23 7 23 8 3 9 -12 1 -24 5 -28 10 -8 14 66 81 98 88 15 3 27 10 27
15 0 6 6 6 14 -1 9 -8 21 -8 37 -2 18 7 19 10 7 10 -31 1 -19 33 28 77 51 46
84 61 84 38 0 -8 7 -14 16 -14 10 0 14 7 12 23 -3 20 1 22 40 22 23 0 42 3 42
7 0 5 -9 8 -20 8 -36 0 -21 34 34 76 37 29 58 39 67 33 25 -16 40 -10 37 14
-2 16 2 22 17 23 36 2 39 4 28 15 -6 6 -9 18 -6 26 4 10 8 11 13 3 5 -8 17 -9
41 -2 26 8 29 10 11 11 -39 2 -22 31 65 112 75 70 84 76 117 72 26 -2 36 0 36
10 0 21 -12 28 -27 16 -10 -9 -13 -8 -13 1 0 19 99 116 107 105 5 -5 18 -11
30 -13 19 -3 23 1 20 20 -2 19 2 23 21 21 19 -3 23 1 20 20 -2 18 1 22 19 20
18 -2 22 2 20 20 -2 17 3 22 20 20 18 -2 22 2 20 20 -1 17 3 22 20 20 18 -2
22 2 21 28 -1 16 4 35 10 41 7 7 10 5 9 -7 -1 -10 4 -20 11 -23 10 -3 12 5 8
34 -6 35 -3 41 41 86 33 33 53 46 65 42 14 -4 17 0 16 18 -3 18 1 23 19 21 18
-2 22 2 20 20 -2 17 3 22 21 20 14 -2 22 3 22 12 0 8 -6 15 -14 15 -20 0 -8
38 16 53 10 7 28 27 39 45 23 36 61 45 52 12 -4 -14 0 -20 11 -20 12 0 16 7
14 23 -2 12 -7 25 -12 28 -15 11 4 29 30 29 21 0 24 4 19 20 -5 17 -2 20 20
20 24 0 26 2 21 35 -6 39 16 85 40 85 7 0 18 9 24 20 6 12 21 20 35 20 20 0
24 5 22 22 -2 19 2 22 21 20 22 -3 23 -1 18 33 -4 24 -1 44 10 60 20 31 54 34
54 5 0 -11 4 -20 9 -20 5 0 8 16 6 37 -5 71 65 174 113 165 6 -2 12 2 12 8 0
5 -4 10 -9 10 -5 0 -3 14 5 30 9 17 22 30 30 30 8 0 14 6 12 12 -7 38 27 73
63 66 10 -2 15 11 17 42 2 29 11 53 24 68 29 30 39 28 36 -7 -2 -17 2 -30 7
-31 6 0 10 16 11 35 1 26 -3 35 -15 35 -14 1 -14 2 1 14 10 7 15 15 12 19 -8
7 24 67 36 67 17 0 25 -5 22 -14 -4 -13 9 -48 16 -41 4 4 7 33 8 66 1 67 19
109 45 109 13 0 17 -7 16 -24 -1 -14 3 -24 8 -23 6 1 10 29 10 62 0 62 16 105
39 105 8 0 17 -11 20 -25 12 -48 29 -15 23 45 -4 45 -1 61 14 81 10 13 19 29
19 36 0 6 11 25 25 41 14 17 25 37 25 46 0 9 4 16 8 16 5 0 14 12 20 26 14 29
36 22 28 -10 -5 -22 8 -55 16 -40 3 5 6 47 6 94 1 68 5 90 22 112 11 15 20 32
20 38 0 24 41 100 55 100 7 0 15 10 17 23 2 16 9 21 26 20 25 -3 27 0 10 26
-6 10 -8 26 -5 35 9 22 37 21 35 -1 -1 -10 0 -29 1 -43 1 -20 3 -22 11 -10 13
20 13 90 0 90 -16 0 -12 27 10 67 11 21 20 46 20 55 0 35 26 19 27 -16 2 -76
33 -76 33 -1 0 42 -3 55 -15 55 -19 0 -19 8 1 45 8 16 19 45 22 64 9 42 32 54
32 17 0 -32 20 -77 31 -70 5 3 9 27 9 55 0 43 -3 49 -21 49 -16 0 -19 4 -14
23 4 12 13 29 21 37 12 12 14 11 14 -11 0 -24 16 -49 32 -49 4 0 8 18 8 40 0
33 -3 40 -19 40 -18 0 -19 3 -10 30 6 17 15 30 19 30 5 0 11 13 15 29 3 16 12
35 20 41 7 6 16 27 20 47 7 36 25 71 56 108 9 11 19 42 23 69 3 27 17 68 31
92 30 52 124 283 131 327 4 18 20 61 36 97 17 36 37 90 44 120 8 30 19 64 24
75 17 36 48 129 60 183 7 28 16 55 21 58 5 3 9 13 9 22 0 10 8 33 19 52 10 19
22 60 26 90 4 30 13 69 20 85 16 39 53 175 65 245 6 30 15 59 20 64 6 6 10 20
10 32 0 12 8 42 19 66 10 24 24 75 30 113 13 75 33 140 56 185 8 16 15 51 15
77 0 26 7 62 16 78 9 17 17 50 20 74 2 25 11 55 19 67 32 50 52 325 26 372
-10 19 -20 22 -75 22 -62 0 -65 -1 -112 -45 -26 -25 -54 -45 -62 -45 -11 0
-12 3 -3 13 12 15 5 27 -16 27 -9 0 -13 -8 -11 -23 2 -18 -1 -21 -19 -19 -16
2 -23 -2 -23 -12 0 -19 13 -20 43 -5 21 12 21 11 5 -12 -23 -35 -114 -129
-126 -129 -5 0 -12 9 -15 20 -8 30 -24 24 -24 -10 0 -16 4 -30 9 -30 5 0 -2
-14 -14 -30 -13 -19 -31 -30 -43 -29 -33 2 -63 -12 -68 -32 -3 -10 -11 -19
-19 -19 -14 0 -39 -45 -30 -54 10 -11 31 16 25 31 -5 12 -2 15 10 10 10 -4 22
1 31 15 8 11 20 18 27 16 9 -3 1 -17 -21 -40 -19 -20 -62 -66 -95 -103 -76
-85 -104 -113 -260 -260 -69 -66 -173 -166 -231 -222 -57 -57 -108 -103 -113
-103 -5 0 -13 -9 -16 -20 -3 -11 -13 -20 -21 -20 -8 0 -14 -4 -14 -9 0 -13
-136 -151 -149 -151 -6 0 -11 -5 -11 -10 0 -14 -64 -80 -78 -80 -6 0 -12 5
-14 10 -5 16 -56 -12 -62 -32 -2 -10 -11 -18 -19 -18 -8 0 -17 -9 -20 -20 -3
-11 -12 -20 -20 -20 -8 0 -17 -9 -20 -20 -3 -11 -12 -20 -20 -20 -8 0 -17 -9
-20 -20 -3 -11 -12 -20 -20 -20 -8 0 -17 -9 -20 -20 -3 -11 -12 -20 -20 -20
-8 0 -17 -9 -20 -20 -3 -11 -12 -20 -20 -20 -8 0 -17 -9 -20 -20 -3 -11 -12
-20 -20 -20 -8 0 -17 -9 -20 -20 -3 -11 -12 -20 -20 -20 -8 0 -17 -9 -20 -20
-3 -11 -12 -20 -20 -20 -8 0 -17 -9 -20 -20 -3 -11 -12 -20 -20 -20 -8 0 -17
-9 -20 -20 -3 -11 -12 -20 -20 -20 -8 0 -17 -9 -20 -20 -3 -11 -12 -20 -20
-20 -8 0 -17 -9 -20 -20 -3 -11 -12 -20 -20 -20 -8 0 -17 -9 -20 -20 -3 -11
-11 -20 -19 -20 -13 0 -40 -45 -31 -54 7 -7 33 5 33 15 0 12 166 175 186 183
7 3 14 12 14 19 0 8 11 19 25 25 14 6 25 16 25 22 0 9 35 46 89 95 6 6 25 25
41 43 17 17 35 32 40 32 6 0 10 4 10 9 0 5 27 36 60 69 33 32 60 64 60 71 0
14 17 15 25 1 7 -11 -257 -280 -274 -280 -6 0 -11 -5 -11 -11 0 -14 -135 -149
-149 -149 -6 0 -11 -4 -11 -8 0 -15 -53 -72 -66 -72 -8 0 -14 -5 -14 -11 0
-14 -55 -69 -69 -69 -6 0 -11 -6 -12 -12 0 -7 -6 0 -13 16 -12 27 -13 27 -19
7 -3 -11 -12 -21 -20 -21 -8 0 -17 -9 -20 -20 -3 -11 -12 -20 -20 -20 -8 0
-17 -9 -20 -20 -3 -11 -12 -20 -20 -20 -8 0 -17 -9 -20 -20 -3 -11 -12 -20
-20 -20 -8 0 -17 -9 -20 -20 -3 -11 -12 -20 -21 -20 -9 0 -16 -4 -16 -9 0 -5
-3 -16 -6 -25 -4 -11 0 -16 12 -16 18 -1 18 -1 0 -15 -12 -9 -24 -11 -29 -6
-12 12 -55 -10 -61 -31 -2 -10 -11 -18 -19 -18 -8 0 -17 -9 -20 -21 -3 -12
-12 -19 -22 -17 -24 4 -31 -49 -7 -54 14 -3 13 -6 -6 -16 -20 -11 -23 -10 -31
9 l-8 23 -5 -22 c-4 -12 -13 -22 -22 -22 -15 0 -17 -6 -20 -54 -1 -13 -10 -19
-34 -21 -41 -3 -44 -6 -47 -47 -2 -26 -7 -33 -24 -33 -11 0 -20 -4 -18 -10 1
-5 8 -9 16 -8 7 0 -3 -14 -24 -34 -27 -26 -40 -32 -49 -24 -10 8 -17 7 -25 -3
-7 -9 -8 -17 -2 -20 15 -10 0 -47 -23 -56 -11 -4 -26 -4 -32 1 -7 6 -16 4 -24
-6 -10 -12 -9 -16 3 -21 25 -9 -24 -57 -60 -58 -15 -1 -26 -5 -23 -11 3 -5 10
-9 17 -9 6 1 2 -11 -9 -27 -12 -16 -27 -29 -32 -30 -44 -2 -78 -8 -83 -13 -4
-3 1 -6 10 -6 11 0 17 -8 17 -25 0 -14 -4 -25 -9 -25 -5 0 -27 -18 -49 -40
-34 -35 -38 -37 -37 -17 1 12 6 22 11 22 19 0 33 16 27 31 -4 11 0 15 12 12
10 -2 20 3 23 11 3 10 0 12 -12 8 -10 -4 -21 -7 -26 -7 -4 0 -10 -9 -13 -20
-3 -11 -12 -20 -20 -20 -8 0 -17 -9 -20 -20 -3 -11 -12 -20 -20 -20 -8 0 -17
-9 -20 -21 -3 -13 -12 -19 -23 -17 -13 2 -19 -3 -19 -17 0 -11 -7 -20 -15 -20
-8 0 -17 -9 -20 -20 -3 -11 -16 -21 -27 -23 -15 -2 -20 -8 -16 -18 4 -10 -2
-17 -15 -21 -11 -2 -22 -13 -25 -24 -3 -10 -12 -19 -20 -19 -8 0 -17 -9 -20
-20 -3 -11 -12 -20 -20 -20 -8 0 -17 -9 -20 -21 -3 -13 -12 -19 -23 -17 -13 2
-19 -3 -19 -17 0 -13 -7 -20 -20 -20 -13 0 -20 -7 -20 -20 0 -13 -7 -20 -20
-20 -13 0 -20 -7 -20 -20 0 -13 -7 -20 -20 -20 -13 0 -20 -7 -20 -20 0 -15 -6
-19 -22 -18 -18 2 -22 -2 -20 -20 1 -16 -3 -22 -18 -22 -13 0 -20 -7 -20 -20
0 -15 -6 -19 -22 -18 -18 2 -22 -2 -20 -20 2 -17 -3 -22 -20 -20 -18 2 -22 -2
-20 -20 2 -17 -3 -22 -20 -20 -18 2 -22 -2 -20 -20 2 -17 -3 -22 -20 -20 -18
2 -22 -2 -20 -20 2 -17 -3 -22 -20 -20 -18 2 -22 -2 -20 -20 2 -17 -3 -22 -20
-20 -18 2 -22 -2 -20 -20 2 -17 -3 -22 -20 -20 -18 2 -22 -2 -20 -20 2 -17 -3
-22 -20 -20 -18 2 -22 -2 -20 -20 2 -17 -3 -22 -20 -20 -18 2 -22 -2 -20 -20
2 -17 -3 -22 -20 -20 -18 2 -22 -2 -20 -20 2 -17 -3 -22 -20 -20 -19 2 -23 -2
-23 -23 0 -21 -4 -24 -20 -19 -16 5 -20 2 -18 -17 2 -18 -2 -23 -19 -22 -17 0
-22 -5 -20 -20 2 -16 -3 -20 -20 -19 -18 2 -22 -2 -20 -20 2 -17 -3 -22 -20
-20 -18 2 -22 -2 -20 -20 2 -17 -3 -22 -20 -20 -18 2 -22 -2 -20 -20 2 -18 -3
-22 -21 -20 -19 3 -23 -1 -20 -20 2 -18 -1 -22 -19 -20 -18 2 -22 -2 -20 -20
2 -17 -3 -22 -20 -20 -18 2 -22 -2 -20 -20 2 -18 -3 -22 -21 -20 -19 3 -23 -1
-20 -20 2 -18 -1 -21 -20 -19 -20 3 -23 0 -20 -20 2 -19 -1 -22 -20 -20 -20 3
-23 0 -20 -19 2 -18 -2 -23 -19 -24 -13 0 -23 -3 -23 -7 0 -5 0 -13 0 -19 0
-6 9 -8 20 -4 24 8 26 -7 4 -26 -14 -11 -18 -11 -29 4 -19 26 -35 20 -35 -13
0 -29 -14 -42 -22 -19 -2 7 -11 7 -28 0 -18 -7 -20 -10 -7 -10 18 -1 23 -26 7
-36 -5 -3 -10 -2 -10 3 0 5 -13 9 -30 9 -34 0 -40 -16 -10 -24 30 -8 25 -22
-27 -70 -52 -48 -74 -56 -50 -19 17 25 13 36 -10 36 -9 0 -13 -8 -11 -22 2
-19 -1 -22 -20 -20 -19 3 -23 -1 -20 -15 2 -10 11 -17 21 -15 21 4 22 -11 2
-28 -13 -11 -18 -10 -29 5 -8 11 -20 16 -29 12 -13 -5 -15 -12 -7 -31 6 -16 6
-27 0 -31 -6 -4 -13 0 -16 8 -6 16 -66 19 -61 3 2 -6 11 -10 21 -8 20 4 21
-21 1 -38 -12 -10 -15 -10 -15 2 0 14 -44 23 -61 12 -17 -10 12 -35 34 -28 23
7 20 -14 -6 -30 -13 -8 -20 -6 -30 8 -12 16 -18 17 -43 8 -28 -10 -28 -11 -6
-17 21 -7 32 -45 12 -45 -5 0 -28 -18 -52 -40 -45 -42 -68 -50 -68 -25 0 17
-65 22 -75 6 -6 -11 13 -25 34 -26 25 0 24 -24 -1 -34 -13 -5 -30 -16 -37 -25
-17 -21 -51 -21 -51 0 0 11 -8 14 -32 12 -36 -3 -41 -21 -8 -26 29 -5 25 -23
-14 -54 -38 -31 -79 -38 -70 -13 5 12 -2 15 -34 15 -23 0 -43 -4 -47 -9 -8
-14 30 -32 49 -25 23 9 20 -23 -3 -36 -29 -15 -41 -12 -41 10 0 16 -7 20 -30
20 -36 0 -39 -17 -5 -30 26 -10 25 -40 -1 -40 -7 0 -18 -8 -23 -19 -15 -28
-52 -34 -58 -10 -4 15 -14 19 -49 19 -24 0 -44 -4 -44 -9 0 -16 30 -33 50 -28
12 3 20 0 20 -7 0 -18 -21 -36 -43 -36 -10 0 -31 -10 -45 -21 l-27 -22 39 6
c39 6 79 29 286 162 63 41 150 95 192 120 43 26 112 74 155 107 43 33 116 86
163 118 47 32 121 91 165 130 44 40 114 100 155 133 41 34 109 91 151 128 81
70 1217 1200 2634 2620 468 468 921 922 1009 1008 87 86 240 239 339 341 100
102 237 242 306 312 126 127 166 153 200 131 35 -22 34 -63 -4 -233 -20 -90
-42 -176 -49 -190 -8 -14 -21 -68 -30 -120 -21 -119 -74 -334 -114 -465 -17
-55 -42 -147 -57 -205 -69 -280 -108 -411 -127 -436 -5 -7 -8 -16 -6 -20 1 -5
-8 -30 -21 -56 -13 -26 -21 -53 -18 -60 4 -13 -19 -69 -34 -78 -4 -3 -24 -60
-42 -126 -48 -166 -78 -246 -135 -361 -27 -54 -63 -136 -80 -183 -69 -192 -94
-248 -157 -356 -36 -62 -65 -115 -65 -118 0 -5 -30 -71 -101 -224 -21 -46 -57
-104 -79 -129 -22 -26 -54 -74 -71 -107 -76 -153 -128 -246 -171 -301 -47 -61
-118 -179 -118 -197 0 -12 -69 -113 -104 -153 -15 -16 -75 -101 -134 -188 -58
-87 -135 -193 -170 -235 -36 -42 -83 -104 -105 -137 -22 -33 -76 -98 -119
-145 -43 -47 -92 -106 -110 -130 -30 -43 -113 -132 -313 -340 -51 -52 -117
-126 -148 -165 -30 -38 -86 -95 -124 -125 -37 -30 -88 -78 -113 -106 -25 -29
-74 -74 -110 -100 -36 -27 -103 -85 -150 -130 -47 -44 -110 -96 -140 -116 -30
-19 -92 -67 -138 -106 -45 -39 -104 -86 -130 -104 -26 -17 -103 -73 -172 -124
-69 -50 -168 -117 -220 -149 -52 -32 -126 -81 -165 -109 -38 -29 -106 -72
-150 -96 -44 -24 -159 -92 -255 -150 -96 -58 -240 -138 -320 -177 -80 -39
-185 -94 -235 -122 -49 -27 -148 -72 -220 -100 -71 -27 -168 -67 -215 -89
-136 -63 -196 -87 -345 -136 -77 -25 -194 -67 -260 -92 -66 -26 -148 -57 -182
-70 -34 -13 -106 -32 -160 -44 -54 -11 -116 -27 -138 -35 -22 -8 -52 -14 -66
-15 -15 0 -46 -7 -70 -16 -56 -20 -272 -81 -369 -103 -41 -10 -82 -20 -90 -24
-35 -13 -126 -29 -305 -52 -256 -33 -454 -63 -490 -75 -28 -8 -242 -30 -655
-65 -194 -17 -754 -20 -970 -5 -135 9 -433 36 -665 61 -55 5 -126 16 -157 24
-31 8 -88 17 -125 20 -80 7 -234 29 -353 51 -47 8 -119 21 -160 28 -41 7 -131
30 -200 51 -69 21 -154 46 -190 56 -103 29 -170 55 -163 63 4 4 0 4 -10 0 -9
-3 -25 -3 -34 2 -10 4 -25 8 -33 10 -53 7 -135 25 -139 32 -3 4 -10 7 -16 8
-28 1 -94 18 -123 31 -23 11 -32 22 -32 39 0 13 5 24 10 24 6 0 10 -4 10 -9 0
-5 16 -12 36 -16 39 -7 74 -23 86 -40 5 -6 8 -5 8 3 0 6 5 12 11 12 6 0 9 -6
6 -14 -5 -11 2 -13 29 -10 25 3 36 0 40 -11 4 -8 11 -15 16 -15 6 0 8 6 5 14
-5 11 0 12 23 3 16 -6 27 -15 24 -19 -3 -4 -1 -8 5 -8 5 0 13 10 17 22 5 18 8
19 15 6 5 -10 30 -18 66 -22 32 -4 70 -13 85 -20 23 -12 29 -12 39 0 6 8 17
14 23 13 7 0 6 -2 -1 -6 -7 -2 -13 -12 -13 -21 1 -13 6 -10 23 11 13 15 29 27
37 27 11 0 11 -3 2 -12 -20 -20 -14 -38 12 -36 18 2 22 6 15 14 -18 21 7 24
29 4 26 -25 51 -28 31 -4 -16 20 2 34 35 27 17 -4 15 1 -13 26 -27 25 -36 28
-45 18 -6 -7 -19 -19 -29 -26 -15 -12 -17 -12 -11 4 6 15 4 16 -15 5 -18 -9
-22 -9 -20 2 3 27 -1 39 -12 32 -8 -5 -10 1 -7 20 3 14 2 26 -3 26 -4 0 -15 8
-25 17 -10 10 -28 16 -42 14 -17 -2 -23 1 -20 11 3 7 17 13 31 13 15 -1 27 3
27 8 0 5 7 4 15 -3 12 -10 19 -10 27 -2 14 14 2 46 -13 36 -8 -4 -9 -3 -5 4 9
16 -26 16 -41 1 -6 -6 -17 -9 -25 -6 -7 3 3 12 25 21 21 9 43 13 50 9 18 -11
57 -13 57 -2 0 5 -9 9 -19 9 -11 0 -23 5 -26 10 -4 6 -11 8 -16 5 -5 -4 -12 7
-15 24 -4 17 -10 28 -15 25 -5 -3 -9 2 -9 12 0 13 3 14 14 5 21 -18 48 -3 36
19 -6 11 -6 21 -1 24 5 3 11 0 14 -8 4 -9 14 -12 26 -9 25 6 28 23 5 23 -14 0
-14 3 -4 15 11 13 8 15 -21 15 -19 0 -29 4 -23 8 15 10 27 49 18 63 -4 8 -9 7
-15 -2 -7 -11 -9 -11 -9 2 0 9 7 22 15 29 8 7 12 17 9 22 -4 6 2 7 17 3 13 -4
26 -7 29 -7 25 -1 30 6 29 40 -1 31 -2 33 -8 12 -5 -20 -13 -25 -41 -27 l-35
-2 -3 64 c-3 56 0 68 20 89 20 22 25 23 42 11 10 -8 16 -21 13 -29 -4 -10 -1
-13 7 -10 15 6 10 44 -5 44 -5 0 -9 7 -9 16 0 11 6 14 23 10 12 -3 16 -3 10 0
-18 8 -16 29 3 48 19 20 6 20 -20 1 -26 -19 -42 -19 -26 0 9 10 9 15 1 15 -6
0 -11 16 -11 35 0 19 5 35 10 35 6 0 10 -7 10 -15 0 -8 5 -15 11 -15 6 0 8 -7
5 -16 -5 -14 -4 -15 8 -5 13 11 11 51 -3 49 -17 -2 -25 3 -15 10 17 11 28 53
14 50 -7 -2 -15 3 -17 10 -3 6 0 12 6 12 6 0 11 7 11 15 0 8 -7 15 -15 15 -9
0 -15 -9 -15 -25 0 -24 -1 -24 -18 -7 -18 16 -18 18 5 41 29 29 30 44 2 36
-18 -6 -19 -5 -7 14 11 17 15 19 23 8 6 -8 20 -17 33 -21 25 -8 30 -26 7 -26
-8 0 -15 -4 -15 -10 0 -5 5 -10 11 -10 6 0 9 -7 6 -15 -7 -18 4 -26 21 -16 19
11 4 91 -16 91 -13 0 -13 3 -4 12 10 10 18 7 38 -15 13 -15 30 -27 37 -27 8 0
7 4 -3 10 -12 7 -10 11 10 19 14 5 21 10 15 10 -5 1 -11 22 -12 49 -2 33 1 42
7 32 8 -12 10 -11 10 7 0 12 -7 26 -16 31 -14 8 -14 12 7 31 22 21 22 21 2 21
-20 0 -39 -24 -34 -44 1 -5 -1 -16 -5 -25 -5 -11 -9 -6 -13 19 -4 22 -2 40 6
48 14 15 3 46 -26 70 -14 11 -12 11 7 2 29 -14 74 -9 80 9 3 8 0 11 -6 8 -5
-4 -15 0 -21 7 -19 23 3 27 45 10 l39 -16 -24 26 c-14 14 -19 26 -13 26 7 0
12 7 12 16 0 8 -4 13 -9 10 -10 -6 -46 43 -37 51 8 8 26 -7 26 -23 0 -8 7 -14
15 -14 20 0 19 17 -2 29 -17 10 -17 12 0 25 10 8 14 17 9 20 -5 3 -15 -1 -22
-9 -16 -19 -36 -19 -44 0 -4 10 1 15 15 15 18 0 17 2 -8 25 -24 21 -26 26 -13
34 10 7 16 7 18 1 6 -17 19 -11 25 11 5 19 10 21 48 15 42 -7 43 -7 25 13 -23
25 -76 38 -86 21 -6 -9 -10 -6 -15 9 -3 11 -11 22 -16 22 -5 1 -15 2 -21 3 -7
1 -20 -7 -29 -18 -14 -17 -17 -17 -29 -4 -8 8 -23 13 -34 10 -23 -6 -18 17 8
32 14 8 20 8 23 0 5 -14 73 3 73 18 0 16 -32 21 -42 7 -8 -11 -9 -11 -5 2 4
12 -2 18 -19 22 -13 2 -24 0 -24 -4 0 -5 5 -9 12 -9 6 0 9 -3 5 -6 -3 -3 -25
6 -50 20 -47 28 -57 31 -57 18 0 -5 11 -14 25 -20 28 -13 34 -32 10 -32 -8 0
-15 -4 -15 -10 0 -5 4 -10 8 -10 4 0 8 -10 9 -23 1 -12 11 -29 23 -39 11 -9
20 -20 20 -25 0 -11 -50 -57 -51 -47 0 5 -2 18 -4 29 -2 11 1 23 8 27 6 4 8
10 4 14 -3 4 -13 2 -20 -5 -8 -6 -23 -8 -33 -4 -16 6 -17 5 -6 -9 11 -14 10
-18 -6 -30 -21 -15 -36 -48 -22 -48 6 0 10 -6 10 -14 0 -8 8 -13 18 -12 12 1
18 -8 20 -31 3 -35 -4 -41 -22 -20 -6 7 -10 10 -9 8 8 -14 -22 -41 -45 -42
-26 0 -27 -1 -5 -11 19 -9 26 -7 42 13 12 14 20 18 21 11 0 -9 7 -11 22 -6 20
6 21 5 6 -10 -9 -9 -21 -16 -27 -16 -6 0 -11 -7 -11 -15 0 -8 -4 -15 -9 -15
-5 0 -3 -14 6 -31 11 -23 12 -34 4 -42 -8 -8 -11 -7 -11 6 0 9 -4 17 -10 17
-5 0 -10 7 -10 15 0 8 -4 15 -10 15 -13 0 -13 -17 0 -25 13 -8 -6 -35 -24 -34
-7 0 -6 2 2 6 13 5 17 33 5 33 -5 -1 -21 -11 -37 -24 -16 -14 -35 -22 -43 -19
-7 3 -13 1 -13 -5 0 -12 28 -24 40 -17 4 3 10 -2 14 -10 3 -8 1 -15 -5 -15 -6
0 -8 -9 -4 -20 5 -15 2 -20 -11 -20 -15 0 -16 -2 -5 -13 11 -9 14 -9 18 1 6
14 33 16 33 2 0 -5 -4 -10 -10 -10 -15 0 -12 -17 4 -23 10 -4 13 -1 9 9 -3 7
-1 14 5 14 14 0 23 -28 10 -32 -7 -3 -8 -10 -4 -17 5 -7 15 -10 23 -6 13 4 14
3 3 -10 -8 -10 -9 -15 -1 -15 6 0 11 -6 11 -14 0 -9 9 -14 20 -13 24 2 24 1 4
32 -10 15 -12 25 -6 25 30 0 44 -79 15 -81 -11 0 -13 -3 -5 -6 6 -2 12 -16 12
-29 0 -13 6 -24 13 -24 7 0 23 -7 36 -16 18 -13 20 -18 10 -26 -10 -6 -7 -7 9
-3 28 8 30 -15 2 -33 -12 -7 -18 -17 -15 -21 2 -5 -2 -12 -11 -15 -24 -9 -26
-8 -19 13 3 11 1 22 -5 26 -8 5 -6 13 6 26 18 21 13 24 -14 10 -20 -11 -41 2
-66 42 -32 48 -96 24 -96 -36 0 -14 -4 -29 -10 -32 -9 -6 -14 8 -11 29 3 18
-23 36 -52 36 -17 0 -40 8 -51 17 -18 15 -18 14 2 -8 12 -14 19 -28 16 -32 -3
-3 8 -3 24 -1 32 5 51 -9 30 -22 -6 -4 -14 -2 -16 4 -3 9 -9 9 -24 1 -16 -9
-23 -7 -35 10 -11 17 -18 19 -34 11 -11 -6 -24 -8 -29 -5 -5 3 -11 1 -15 -5
-4 -6 -11 -8 -16 -5 -9 6 -28 -31 -35 -66 -5 -22 33 -60 51 -53 8 4 15 11 16
18 0 6 5 0 10 -13 11 -27 6 -37 -13 -25 -7 5 -22 10 -32 11 -11 2 -25 8 -33
14 -9 8 -13 8 -13 1 0 -6 -10 -12 -22 -14 -22 -3 -39 -28 -18 -28 6 0 8 4 5
10 -3 6 1 7 9 4 14 -5 13 -9 -1 -30 -8 -13 -20 -24 -25 -24 -5 0 -6 -5 -2 -11
4 -8 -1 -9 -17 -5 -13 3 -18 3 -11 0 17 -8 15 -34 -3 -34 -8 0 -15 -4 -15 -10
0 -5 5 -10 11 -10 5 0 8 -4 5 -9 -4 -5 -1 -11 6 -13 9 -3 9 -6 0 -12 -7 -4
-12 -2 -12 3 0 6 -4 11 -10 11 -5 0 -10 -7 -10 -15 0 -9 -6 -12 -15 -9 -11 5
-13 2 -9 -10 4 -10 13 -15 20 -12 11 4 13 -1 8 -18 -4 -18 0 -25 18 -31 20 -6
18 -8 -17 -15 -22 -4 -44 -8 -50 -10 -22 -6 -27 1 -14 17 13 15 12 15 -8 3
-19 -12 -25 -12 -45 5 l-23 20 17 -21 c24 -28 23 -31 -12 -31 -22 0 -30 5 -30
19 0 10 -5 18 -11 18 -7 0 -9 -11 -6 -30 7 -32 -1 -38 -21 -18 -8 8 -12 9 -12
1 0 -6 7 -19 16 -28 9 -8 13 -22 10 -30 -3 -8 -1 -17 4 -20 7 -4 7 -48 -1 -65
-1 -3 -2 -12 -3 -20 -1 -8 -17 -19 -36 -24 -41 -12 -52 -24 -40 -47 11 -19
-12 -21 -45 -2 -23 12 -70 -1 -60 -17 4 -7 12 -7 24 0 18 9 31 5 31 -11 0 -3
-14 -9 -30 -11 -17 -3 -30 -2 -30 1 0 4 -18 5 -40 3 -45 -5 -48 -1 -23 27 17
20 39 19 27 -1 -4 -7 -2 -8 4 -4 13 8 17 37 4 34 -4 0 -15 2 -25 7 -19 8 -31
1 -33 -18 0 -7 -2 -20 -2 -29 -2 -15 -5 -15 -32 -1 -17 8 -37 12 -45 9 -8 -3
-17 -1 -20 4 -4 6 -14 10 -23 10 -10 0 -35 9 -57 20 -22 11 -45 20 -52 20 -7
0 -54 20 -105 44 -51 24 -149 67 -217 95 -68 28 -199 90 -290 138 -91 48 -189
97 -218 109 -28 11 -72 34 -98 50 -26 16 -84 51 -129 77 -44 27 -92 59 -106
72 -14 13 -61 40 -105 60 -115 51 -135 63 -185 110 -45 43 -150 116 -182 128
-31 11 -171 108 -232 161 -74 64 -147 116 -162 116 -7 0 -14 7 -18 15 -3 8
-12 15 -21 15 -8 0 -15 4 -15 8 0 4 -15 16 -33 27 -43 25 -103 85 -111 113 -4
12 -14 22 -23 22 -17 0 -79 46 -135 101 -27 27 -35 42 -31 58 4 16 11 20 27
16 19 -6 20 -5 4 8 -10 8 -18 19 -18 26 0 6 -6 11 -13 11 -8 0 -13 12 -13 30
0 31 10 40 20 17 3 -6 5 -3 3 8 -1 11 -12 22 -27 25 -23 5 -23 7 -6 13 11 4
24 3 30 -3 18 -18 26 -11 16 14 -7 18 -5 26 5 30 9 3 12 12 8 22 -5 13 -3 16
10 11 12 -4 17 -1 17 10 0 13 3 13 15 3 9 -7 19 -10 23 -6 4 4 -4 16 -17 27
-27 22 -15 26 13 4 11 -8 26 -15 33 -15 19 0 16 28 -4 32 -16 3 -15 6 5 26 27
27 28 36 2 20 -15 -10 -22 -10 -32 0 -9 9 -7 12 9 12 12 0 24 4 28 10 3 5 12
7 20 3 11 -4 15 2 15 22 0 23 2 26 15 15 12 -10 13 -16 4 -26 -7 -9 -8 -14 -1
-14 13 0 26 30 23 52 -1 10 4 18 13 18 10 0 13 6 9 17 -5 13 -2 15 11 10 10
-4 19 -1 23 8 3 10 12 13 24 10 13 -4 19 -1 19 9 0 9 5 16 11 16 6 0 9 6 6 14
-3 8 1 17 9 20 8 3 21 21 30 40 9 19 27 40 40 47 13 7 24 16 24 21 0 4 9 8 20
8 13 0 20 7 20 20 0 21 15 27 25 10 3 -5 12 -10 18 -10 8 0 8 3 -2 9 -10 7 -8
12 10 25 19 13 20 16 6 16 -9 0 -17 5 -17 10 0 6 5 10 10 10 6 0 10 7 10 15 0
18 36 20 43 2 3 -6 6 0 6 15 1 39 11 58 30 58 17 0 51 33 51 49 0 5 11 19 25
32 13 13 25 32 25 42 0 9 5 18 10 18 20 3 25 4 38 13 7 4 12 17 10 29 -2 18 1
21 22 19 18 -2 21 0 11 6 -18 13 2 24 25 15 13 -5 16 -3 11 10 -3 9 -1 19 5
23 7 4 8 3 4 -4 -10 -17 9 -15 24 3 6 8 9 23 5 35 -5 17 -2 20 20 20 15 0 24
4 20 10 -3 6 1 7 10 4 11 -5 16 -2 15 7 -6 40 1 60 26 69 21 8 24 13 14 25 -9
11 -5 15 24 21 32 5 35 9 30 30 -4 17 -1 26 10 30 9 3 16 12 16 20 0 8 8 13
17 12 10 -1 29 0 42 0 19 2 21 5 12 16 -7 8 -26 18 -42 21 -29 7 -37 19 -19
30 6 4 8 10 6 14 -7 11 27 10 42 -2 19 -15 26 -1 13 30 -8 21 -26 34 -64 48
-40 16 -55 28 -66 53 -8 17 -21 32 -28 32 -7 0 -13 7 -13 15 0 8 -11 22 -25
31 -14 9 -25 24 -25 34 0 10 -9 21 -19 25 -10 3 -30 16 -42 29 -41 39 -141 19
-107 -21 8 -10 5 -13 -11 -13 -15 0 -21 -5 -19 -17 2 -13 -3 -18 -18 -17 -16
0 -20 -4 -16 -20 4 -20 4 -20 -13 -4 -17 15 -20 15 -51 -5 -19 -12 -32 -27
-29 -34 2 -7 -7 -21 -20 -32 -14 -10 -25 -23 -25 -27 0 -4 5 -3 12 4 21 21 29
13 9 -10 -11 -11 -17 -26 -14 -31 4 -6 0 -8 -11 -4 -12 5 -20 -1 -28 -18 -9
-20 -14 -22 -25 -13 -7 6 -14 9 -16 7 -21 -38 -27 -52 -27 -70 0 -18 -2 -19
-15 -9 -12 10 -15 9 -15 -6 0 -14 -3 -15 -12 -6 -7 7 -19 12 -28 12 -12 -1
-12 -3 3 -14 20 -15 13 -48 -9 -39 -8 3 -11 9 -8 14 10 17 -4 9 -34 -19 -17
-16 -40 -35 -52 -43 -21 -14 -22 -16 -6 -32 10 -9 13 -17 7 -17 -5 0 -13 -10
-16 -21 -6 -17 -9 -19 -16 -8 -7 11 -9 10 -9 -5 0 -12 -5 -16 -15 -12 -10 4
-15 -1 -15 -14 0 -11 -6 -20 -12 -20 -7 0 -37 -23 -65 -50 -29 -28 -53 -48
-53 -44 0 3 -9 -4 -19 -17 -14 -17 -16 -26 -8 -31 8 -5 6 -8 -5 -8 -10 0 -18
-4 -18 -10 0 -5 -8 -10 -17 -10 -9 0 -25 -7 -35 -16 -15 -14 -20 -15 -35 -3
-15 11 -16 11 -5 -1 17 -19 15 -30 -5 -30 -9 0 -14 -3 -10 -6 8 -8 -25 -44
-41 -44 -9 0 -11 -7 -7 -22 l7 -23 -17 23 c-16 22 -38 22 -30 -1 2 -7 -6 -25
-20 -41 -19 -24 -26 -27 -38 -18 -11 10 -17 9 -28 -4 -8 -9 -14 -24 -14 -33 0
-9 -6 -15 -13 -13 -8 1 -11 -2 -7 -7 3 -6 -3 -16 -14 -22 -10 -7 -17 -17 -15
-23 5 -13 -52 -52 -68 -48 -6 2 -8 -4 -5 -13 4 -9 1 -15 -8 -15 -8 0 -12 6 -9
14 3 8 -3 15 -14 18 -14 4 -19 1 -18 -11 1 -9 -6 -15 -17 -15 -9 1 -17 -4 -17
-12 0 -8 -6 -14 -14 -14 -8 0 -16 -7 -20 -15 -4 -10 -14 -13 -35 -9 -25 5 -30
3 -33 -17 -2 -13 -9 -23 -16 -22 -18 4 -15 -8 9 -34 20 -20 20 -23 5 -29 -20
-8 -21 -24 -1 -24 8 0 15 5 15 11 0 5 4 8 10 4 5 -3 2 -14 -8 -25 -17 -21 -13
-25 -275 251 -18 20 -73 85 -122 145 -48 60 -91 111 -94 114 -47 37 -377 473
-481 635 -54 86 -64 108 -68 155 -3 47 0 59 19 79 12 13 23 34 24 46 0 12 14
35 30 51 30 30 121 94 132 94 18 0 83 55 83 70 0 19 30 50 48 50 19 0 14 -15
-10 -25 -25 -12 -36 -35 -16 -35 17 0 58 41 58 57 0 6 21 31 46 55 26 23 62
58 80 76 18 17 40 32 47 32 16 0 117 103 117 120 0 15 80 100 94 100 20 0 94
69 128 118 38 55 104 120 135 132 20 9 85 82 148 170 16 23 53 57 82 76 29 19
67 56 85 82 31 46 126 142 140 142 3 0 37 37 74 82 100 123 329 346 450 439
60 46 110 93 115 108 15 39 14 103 -3 115 -9 7 -18 46 -25 105 -8 68 -15 96
-27 103 -9 5 -16 15 -16 23 0 8 -6 18 -14 22 -8 5 -15 34 -18 81 -4 48 -11 77
-21 85 -9 8 -17 38 -21 90 -3 42 -12 92 -19 110 -13 30 -35 141 -73 362 -15
84 -18 183 -20 625 -2 537 4 674 40 860 8 41 20 112 26 157 6 46 17 97 25 115
7 18 16 56 20 83 4 28 15 77 26 110 15 48 38 169 39 208 0 4 9 7 20 7 14 0 22
11 30 43 36 141 90 287 154 416 40 80 85 178 101 216 31 74 114 224 174 315
35 54 74 130 66 130 -10 0 -54 -51 -59 -68 -4 -11 -15 -27 -26 -37 -11 -10
-20 -24 -20 -32 0 -7 -4 -13 -10 -13 -5 0 -10 -7 -10 -15 0 -8 -9 -19 -21 -25
-11 -6 -43 -59 -72 -118 -28 -59 -57 -111 -64 -115 -7 -4 -13 -12 -13 -17 0
-5 -12 -35 -26 -67 -15 -32 -33 -72 -40 -89 -15 -33 -40 -51 -46 -32 -2 6 -4
-5 -4 -26 0 -20 -6 -42 -13 -49 -11 -10 -13 -9 -8 4 3 9 0 16 -8 16 -8 0 -16
-9 -18 -19 -3 -11 0 -18 9 -18 10 0 11 -6 5 -22 -9 -25 -28 -26 -23 -2 2 8 -4
14 -11 14 -8 0 -20 7 -27 15 -16 19 -30 19 -30 0 0 -8 -4 -15 -9 -15 -5 0 -11
-7 -15 -15 -4 -12 -2 -13 12 -6 28 15 45 -1 28 -24 -9 -13 -11 -27 -5 -42 5
-15 5 -23 -2 -23 -5 0 -15 14 -20 30 -7 20 -18 30 -31 30 -15 0 -18 5 -13 20
4 11 2 20 -4 20 -6 0 -11 6 -11 14 0 19 -20 32 -29 18 -4 -7 -12 -8 -21 -2
-13 8 -12 10 3 10 9 0 17 5 17 11 0 6 -7 9 -15 5 -8 -3 -15 -1 -15 3 0 5 6 12
13 14 9 4 9 6 0 6 -6 1 -15 -3 -18 -9 -10 -16 -45 12 -45 36 0 18 -4 21 -22
16 -17 -4 -20 -2 -15 11 4 10 2 17 -4 17 -6 0 -8 3 -6 8 8 13 -12 54 -24 47
-6 -4 -8 -13 -5 -21 3 -8 -1 -14 -10 -14 -8 0 -12 5 -9 10 7 12 -16 70 -27 70
-5 0 -8 9 -8 19 0 11 -5 23 -10 26 -13 8 -13 65 0 65 6 0 10 5 10 11 0 6 -6 9
-14 6 -17 -7 -28 16 -20 38 4 8 2 15 -4 15 -6 0 -8 9 -5 20 3 12 -1 22 -10 26
-10 3 -14 14 -11 30 3 17 0 22 -10 18 -10 -4 -13 2 -10 22 2 23 -11 59 -34 94
-2 3 -10 -4 -18 -14 -11 -16 -14 -17 -14 -4 0 8 7 21 15 28 9 7 13 21 10 31
-4 13 -1 19 9 19 14 0 13 3 -2 20 l-17 21 -18 -22 c-11 -14 -16 -31 -12 -46 4
-17 2 -21 -10 -17 -17 7 -21 74 -5 102 5 9 15 33 23 52 8 19 26 63 41 96 14
34 26 67 26 73 0 6 4 11 10 11 5 0 7 7 4 15 -4 9 0 15 10 15 9 0 16 4 16 9 0
5 20 44 45 85 25 42 45 81 45 86 0 32 189 340 255 415 25 28 37 47 71 113 25
47 79 102 102 102 5 0 22 6 38 14 169 82 287 99 388 55 111 -47 265 -184 342
-305 29 -45 34 -60 29 -91 -3 -21 -7 -46 -8 -55 -1 -10 -5 -18 -9 -18 -4 0 -8
-8 -8 -19 0 -10 -7 -24 -15 -31 -8 -7 -15 -20 -15 -29 0 -9 -9 -43 -20 -75
-21 -58 -20 -80 2 -58 6 6 52 61 102 123 88 110 167 185 385 367 58 48 159
137 226 197 194 176 447 359 645 467 63 35 138 75 165 90 137 75 336 168 470
219 28 11 58 24 68 29 9 6 50 21 90 34 39 14 117 41 172 60 55 20 145 43 200
52 55 8 154 26 220 39 66 14 170 29 232 35 61 6 131 17 155 26 36 13 132 17
598 25 847 13 936 23 1091 122 208 133 393 282 567 458 95 96 185 185 200 199
15 14 97 97 182 185 169 175 263 269 361 360 36 33 80 77 99 97 19 21 148 150
285 288 138 137 255 254 260 260 6 6 48 48 95 94 47 46 108 108 136 137 28 30
79 81 115 114 35 34 84 82 109 109 43 45 189 189 782 768 145 142 283 272 308
290 25 17 99 84 165 147 78 75 140 126 176 144 l56 28 571 -5 c314 -2 576 -8
583 -12 24 -15 49 -38 49 -47 0 -4 -4 -5 -10 -2 -6 3 -7 -1 -4 -9 5 -14 -2
-15 -53 -10 -45 5 -68 2 -95 -10 -19 -9 -132 -112 -251 -229 -119 -117 -249
-244 -289 -283 -40 -38 -239 -240 -443 -449 -368 -376 -643 -653 -720 -723
-23 -20 -72 -73 -110 -117 -38 -44 -81 -89 -95 -100 -14 -10 -90 -85 -170
-165 -80 -80 -169 -167 -198 -194 -28 -27 -71 -74 -94 -105 -45 -59 -85 -101
-90 -96 -6 7 -83 -70 -118 -117 -19 -26 -40 -48 -47 -48 -10 0 -53 -41 -216
-207 -16 -17 -519 -511 -624 -615 -27 -25 -118 -119 -203 -208 -85 -90 -180
-185 -210 -214 -30 -28 -73 -71 -95 -96 -22 -24 -92 -97 -155 -161 -63 -63
-173 -176 -244 -250 -70 -74 -156 -161 -190 -194 -33 -33 -81 -82 -106 -109
-56 -62 -187 -193 -226 -226 -16 -14 -49 -50 -74 -80 -24 -30 -71 -80 -104
-110 -33 -30 -87 -83 -120 -118 -245 -253 -375 -381 -401 -394 -54 -28 -106
-31 -490 -29 -209 1 -400 -2 -425 -8 -262 -53 -439 -101 -507 -136 -15 -8 -34
-15 -42 -15 -7 0 -67 -18 -133 -41 -83 -28 -167 -67 -267 -124 -80 -45 -171
-95 -201 -110 -68 -34 -165 -101 -248 -172 -35 -29 -89 -71 -120 -92 -31 -21
-84 -70 -117 -107 -33 -38 -94 -103 -136 -144 -41 -41 -95 -104 -119 -140 -24
-36 -61 -83 -81 -105 -55 -59 -71 -82 -122 -170 -164 -290 -228 -425 -265
-560 -66 -242 -82 -303 -92 -365 -6 -36 -15 -76 -19 -90 -30 -87 -45 -369 -32
-602 10 -176 15 -190 82 -235 l40 -26 540 2 c298 1 551 6 562 10 28 10 135
-14 160 -37 17 -15 19 -27 14 -87 -7 -99 -66 -195 -129 -211 -33 -7 -37 9 -12
44 12 18 13 26 4 37 -18 21 -29 18 -36 -9 -5 -21 -10 -24 -37 -20 -28 5 -41
-2 -102 -55 -38 -34 -259 -253 -490 -488 -231 -235 -581 -587 -777 -783 -197
-195 -369 -370 -382 -389 -14 -19 -58 -68 -98 -110 -104 -109 -304 -331 -441
-490 -70 -80 -230 -250 -347 -366 -134 -134 -134 -128 13 -270 62 -61 138
-141 169 -180 73 -91 518 -531 678 -671 69 -60 169 -143 224 -184 54 -41 135
-103 180 -137 44 -34 101 -74 124 -90 24 -15 87 -57 140 -92 52 -35 100 -64
106 -65 6 -1 21 -11 34 -24 12 -12 54 -38 93 -58 40 -20 111 -60 158 -89 190
-116 342 -195 426 -221 11 -4 97 -44 190 -89 94 -45 190 -87 215 -93 25 -6 63
-20 85 -32 21 -11 60 -21 85 -21 68 -2 105 -12 103 -29 -2 -11 19 -22 70 -37
204 -60 234 -71 258 -86 15 -10 62 -22 105 -27 91 -11 158 -26 187 -41 11 -6
66 -15 122 -19 70 -6 112 -15 136 -28 23 -14 62 -22 124 -26 54 -3 112 -14
145 -27 41 -16 104 -25 245 -36 143 -12 195 -20 209 -32 23 -21 334 -29 896
-24 393 3 475 7 465 23 -8 13 36 19 208 30 126 8 172 15 230 35 44 16 104 28
157 31 60 4 93 12 112 25 17 12 59 22 118 29 51 6 117 20 148 31 32 12 91 24
133 28 55 5 88 15 122 34 25 15 55 27 66 27 24 0 250 72 296 95 17 8 54 19 84
25 30 6 68 19 85 29 17 10 50 21 73 25 23 3 57 15 75 26 18 10 54 26 78 35 25
9 89 38 142 65 54 28 104 50 112 50 17 0 279 134 309 158 7 5 28 14 47 21 35
11 127 87 118 96 -7 7 -88 -46 -88 -57 0 -4 -11 -8 -25 -8 -16 0 -25 6 -25 15
0 11 -12 15 -45 15 -25 0 -45 -4 -45 -10 0 -14 31 -28 51 -23 31 8 23 -26 -8
-38 -16 -5 -46 -19 -69 -30 -22 -10 -43 -19 -47 -19 -4 0 -16 -9 -27 -20 -11
-11 -29 -20 -40 -20 -11 0 -29 -9 -40 -20 -11 -11 -28 -20 -37 -20 -10 0 -27
-7 -37 -15 -11 -8 -30 -15 -43 -15 -12 0 -27 -9 -33 -20 -7 -13 -21 -20 -39
-20 -15 0 -36 -9 -45 -19 -10 -10 -37 -24 -61 -30 -24 -6 -47 -15 -50 -21 -3
-5 -14 -10 -23 -10 -10 0 -33 -8 -52 -19 -19 -10 -54 -22 -77 -25 -23 -4 -59
-16 -80 -27 -20 -10 -45 -19 -55 -19 -19 0 -70 -20 -129 -51 -21 -10 -57 -21
-80 -25 -24 -4 -58 -15 -75 -25 -17 -11 -47 -19 -67 -19 -20 0 -38 -4 -41 -9
-3 -4 -20 -11 -38 -15 -17 -3 -39 -13 -48 -21 -9 -8 -54 -20 -101 -26 -46 -6
-100 -18 -119 -27 -19 -9 -64 -18 -100 -20 -36 -2 -105 -18 -155 -34 -51 -16
-129 -33 -180 -38 -50 -5 -105 -16 -125 -26 -25 -13 -71 -20 -170 -25 -123 -6
-182 -15 -350 -52 -79 -17 -1166 -17 -1196 0 -35 20 -178 44 -316 53 -82 5
-139 14 -160 24 -18 9 -71 21 -118 26 -47 5 -123 21 -170 36 -47 15 -121 30
-165 33 -44 4 -89 11 -100 18 -18 10 -67 18 -224 38 -18 2 -41 10 -50 18 -24
20 -102 47 -137 47 -17 0 -42 8 -55 19 -13 10 -44 21 -69 25 -25 4 -72 22
-103 41 -36 22 -71 35 -92 35 -23 0 -39 7 -49 21 -8 12 -19 19 -24 16 -5 -4
-24 -2 -43 3 -19 5 -51 12 -71 15 -64 10 -46 30 27 30 65 0 106 18 72 31 -18
6 -135 0 -185 -11 -21 -5 -32 -3 -32 4 0 6 -11 11 -25 11 -14 0 -34 9 -44 19
-10 10 -33 22 -51 26 -17 4 -34 13 -37 20 -2 8 -19 17 -36 20 -18 4 -52 17
-77 29 -88 44 -115 55 -140 58 -15 2 -26 11 -28 21 -3 15 0 18 18 12 24 -8 73
13 64 27 -8 12 -91 10 -113 -4 -20 -12 -51 -5 -51 12 0 5 9 10 19 10 27 0 51
10 51 21 0 11 -82 8 -91 -4 -9 -12 -99 23 -99 39 0 8 8 14 19 14 21 0 45 23
34 33 -3 4 -21 7 -40 7 -27 0 -33 -4 -33 -21 0 -15 -4 -19 -16 -15 -9 3 -22 6
-30 6 -27 0 -14 26 18 35 17 6 33 16 36 23 5 15 -79 17 -95 1 -8 -8 -35 1 -97
30 -86 42 -106 61 -63 61 23 0 47 17 47 32 0 4 -18 8 -40 8 -33 0 -40 -3 -40
-20 0 -25 -24 -26 -48 -2 -10 10 -26 21 -35 25 -18 7 -24 47 -7 47 6 0 16 -11
22 -25 12 -27 39 -33 57 -12 14 18 4 27 -31 27 -25 0 -28 3 -23 20 5 17 2 20
-25 20 -27 0 -30 -3 -25 -20 9 -30 -30 -26 -57 5 -12 14 -27 25 -34 25 -6 0
-17 7 -24 15 -7 8 -20 15 -29 15 -10 0 -27 11 -39 25 -12 14 -26 25 -32 25
-19 0 -10 38 10 43 30 8 24 24 -10 25 -20 0 -30 -4 -30 -14 0 -23 -17 -16 -80
33 -63 49 -73 67 -40 76 11 3 20 9 20 15 0 15 -54 11 -66 -6 -8 -11 -13 -12
-18 -3 -5 7 -1 20 8 30 16 17 16 19 1 25 -27 10 -35 7 -35 -14 0 -27 -22 -16
-70 34 -19 20 -41 36 -47 36 -22 0 -14 37 9 43 30 8 18 17 -28 21 -33 3 -39 7
-36 25 4 23 -8 27 -26 9 -9 -9 -12 -5 -12 20 0 27 -4 32 -24 32 -13 0 -26 -5
-28 -11 -2 -6 -21 4 -42 22 -59 52 -176 171 -176 181 0 4 -5 8 -11 8 -10 0
-271 261 -380 380 -32 36 -67 74 -77 85 -10 11 -21 28 -25 37 -3 10 -11 18
-16 18 -6 0 -15 9 -21 20 -9 17 -8 20 8 20 10 0 24 -11 30 -25 6 -14 18 -25
27 -25 9 0 15 9 15 25 0 20 -5 25 -25 25 -14 0 -25 5 -25 10 0 6 -7 10 -15 10
-8 0 -15 6 -15 13 0 18 77 91 98 93 44 2 52 5 49 16 -1 7 8 17 21 23 12 5 22
15 22 22 0 6 9 14 19 18 10 3 21 15 24 25 3 12 14 20 27 20 14 0 20 5 18 18
-2 12 3 16 19 15 18 -2 23 2 23 21 0 22 3 24 40 19 31 -4 40 -2 40 10 0 8 -12
17 -27 20 -21 4 -38 -3 -73 -31 -81 -65 -170 -149 -170 -160 0 -7 -9 -12 -20
-12 -11 0 -20 5 -20 12 0 13 79 90 120 116 14 9 29 22 33 29 4 7 15 13 22 13
8 0 15 4 15 8 0 16 85 72 109 72 19 0 22 -3 13 -12 -18 -18 -15 -24 15 -23 23
0 28 -4 26 -22 -2 -16 1 -21 13 -16 15 5 37 -12 112 -90 20 -22 47 -48 60 -60
12 -11 22 -26 22 -33 0 -6 9 -14 20 -17 11 -3 20 -12 20 -20 0 -8 9 -17 20
-20 11 -3 20 -12 20 -20 0 -8 9 -17 20 -20 11 -3 20 -12 20 -20 0 -8 9 -17 20
-20 11 -3 20 -12 20 -20 0 -8 9 -17 20 -20 11 -3 20 -12 20 -20 0 -8 9 -17 20
-20 11 -3 20 -12 20 -20 0 -8 9 -17 20 -20 11 -3 20 -12 20 -20 0 -8 9 -17 20
-20 11 -3 20 -12 20 -20 0 -8 9 -17 20 -20 11 -3 20 -12 20 -20 0 -16 37 -33
48 -23 3 4 -80 92 -184 197 -104 106 -197 200 -207 210 -9 11 -21 19 -27 19
-5 0 -9 5 -7 12 1 7 -8 17 -21 23 -12 5 -22 16 -22 23 0 7 -7 15 -16 19 -18 7
-64 50 -64 61 0 4 -17 21 -37 39 -21 17 -35 34 -31 39 13 13 81 -43 183 -152
140 -149 401 -411 458 -459 26 -22 58 -50 72 -62 15 -13 30 -23 36 -23 5 0 9
-7 9 -15 0 -8 5 -15 11 -15 6 0 33 -18 59 -40 26 -22 53 -40 59 -40 6 0 16 -9
23 -20 7 -11 17 -20 21 -20 5 0 23 -11 41 -25 17 -14 42 -34 54 -43 13 -9 42
-34 64 -55 22 -20 45 -37 52 -37 7 0 21 -9 31 -20 10 -11 24 -20 31 -20 8 0
19 -9 26 -20 7 -11 18 -20 25 -20 7 0 18 -9 25 -20 7 -11 18 -20 24 -20 6 0
19 -9 29 -20 10 -11 27 -20 37 -20 10 0 21 -7 25 -15 3 -9 20 -22 37 -31 45
-21 73 -39 94 -57 10 -10 26 -17 35 -17 9 0 22 -8 29 -19 7 -10 23 -21 36 -25
12 -4 22 -11 22 -16 0 -5 15 -14 34 -20 19 -6 37 -17 40 -25 3 -8 15 -15 26
-15 11 0 29 -9 40 -20 11 -11 29 -20 40 -20 11 0 29 -9 40 -20 11 -11 26 -20
34 -20 7 0 24 -9 38 -19 13 -11 36 -23 51 -26 14 -4 31 -13 37 -20 6 -8 24
-17 40 -20 16 -3 34 -12 40 -20 6 -8 24 -17 40 -20 16 -3 34 -13 41 -21 6 -8
24 -14 39 -14 15 0 39 -9 53 -20 14 -11 30 -20 37 -20 6 0 25 -8 43 -17 18
-10 50 -23 72 -29 74 -23 146 -51 158 -63 6 -6 23 -11 37 -11 14 0 42 -8 63
-19 20 -10 56 -22 80 -25 25 -4 53 -13 63 -21 11 -8 35 -15 54 -15 20 0 52 -8
72 -19 20 -10 61 -21 90 -25 29 -4 60 -13 68 -20 8 -7 39 -16 69 -19 29 -4 64
-13 77 -22 13 -8 45 -15 72 -15 28 0 64 -8 87 -20 22 -11 57 -20 80 -20 40 0
103 -13 140 -30 11 -5 57 -11 103 -15 46 -3 102 -12 125 -19 23 -8 87 -17 142
-21 54 -4 122 -13 150 -20 68 -17 695 -27 975 -16 118 5 256 16 305 25 50 8
118 15 153 15 35 1 76 8 91 16 16 8 66 17 112 21 46 3 94 13 107 21 12 7 53
17 90 20 37 3 77 12 89 20 12 8 46 17 77 20 52 5 55 5 49 -16 -5 -20 -2 -21
74 -21 44 0 83 3 86 7 15 14 -32 32 -85 33 -32 0 -58 4 -58 10 0 12 65 30 111
30 20 0 42 6 48 14 7 8 38 18 69 21 31 4 75 15 98 26 22 10 57 19 77 19 20 0
51 9 69 20 18 11 41 20 51 20 9 0 34 9 54 20 21 11 48 20 61 20 13 0 35 9 49
20 14 11 38 20 53 20 15 0 33 7 40 15 7 8 28 17 49 21 20 4 47 15 60 25 13 11
33 19 43 19 11 0 31 9 45 20 14 11 35 20 45 20 11 0 31 9 45 20 14 11 36 20
48 20 12 0 28 6 34 14 7 8 24 17 38 21 15 3 38 15 51 26 14 10 31 19 39 19 8
0 26 9 40 20 14 11 33 20 42 20 9 0 24 9 34 20 9 11 25 20 35 20 10 0 25 9 35
20 9 11 27 20 39 20 13 0 29 9 36 20 7 11 20 20 31 20 10 0 26 9 36 20 10 11
24 20 32 20 7 0 22 9 33 20 11 11 29 20 40 20 11 0 20 6 20 14 0 15 21 26 48
26 10 0 23 9 30 20 7 11 18 20 25 20 7 0 18 9 25 20 7 11 22 20 35 20 12 0 28
9 35 20 7 11 21 20 32 20 10 0 23 6 27 14 8 15 79 66 91 66 4 0 13 9 20 20 7
11 22 20 35 20 12 0 28 9 35 20 7 11 18 20 25 20 7 0 18 9 25 20 7 11 23 20
36 20 15 0 26 7 29 20 3 11 13 20 24 20 10 0 24 9 31 20 7 11 17 20 23 20 7 0
22 10 34 23 12 12 34 31 49 42 15 11 35 28 44 37 9 10 21 18 27 18 6 0 16 9
23 20 7 11 17 20 23 20 13 0 121 87 132 106 4 8 13 14 20 14 7 0 18 9 25 20 7
11 16 20 20 20 8 0 156 143 208 201 17 19 53 55 80 80 27 26 54 53 60 60 7 8
493 494 1080 1081 588 586 1156 1153 1261 1260 268 269 323 324 362 361 19 17
82 79 141 137 58 58 157 155 220 216 63 62 173 172 243 245 71 74 141 146 155
161 15 14 41 40 57 56 116 118 250 252 483 483 313 312 345 348 374 409 6 14
21 35 32 48 21 24 21 26 29 1855 5 1008 9 1843 10 1857 0 14 -3 1033 -7 2265
-6 1802 -5 2261 5 2345 8 69 12 192 9 360 -7 538 -5 844 8 920 22 137 36 328
26 358 -8 23 -16 27 -49 29 -22 1 -50 -2 -61 -7z m79 -87 c-4 -62 -9 -114 -33
-298 -4 -33 -8 -342 -9 -686 -1 -344 -5 -638 -10 -655 -5 -18 -58 -78 -141
-159 -176 -172 -1286 -1283 -1560 -1561 -118 -121 -316 -322 -440 -449 -123
-126 -420 -428 -659 -670 -829 -838 -1137 -1151 -1301 -1320 -90 -93 -387
-395 -660 -671 -272 -275 -580 -591 -685 -701 -424 -448 -417 -440 -421 -480
-2 -21 -6 -819 -8 -1773 l-3 -1735 -27 -110 c-15 -60 -33 -144 -41 -185 -24
-132 -201 -598 -277 -732 -97 -169 -258 -422 -331 -520 -96 -128 -281 -316
-442 -448 -55 -45 -122 -104 -150 -130 -56 -54 -162 -129 -343 -243 -115 -73
-184 -110 -342 -185 -36 -17 -78 -44 -95 -60 -16 -16 -37 -31 -47 -35 -12 -4
-15 -15 -13 -42 4 -37 26 -69 132 -188 35 -39 79 -111 135 -220 45 -89 97
-177 115 -195 18 -18 33 -39 33 -47 0 -17 -70 -49 -170 -77 -185 -52 -239 -67
-305 -88 -38 -12 -89 -26 -113 -31 -23 -4 -50 -12 -60 -17 -9 -5 -53 -17 -97
-27 -44 -10 -103 -23 -131 -30 -28 -7 -109 -21 -180 -30 -71 -9 -156 -20 -189
-26 -140 -22 -332 -31 -570 -25 -137 3 -269 10 -291 15 -23 6 -99 17 -170 26
-159 19 -423 73 -494 102 -14 6 -50 16 -80 23 -30 7 -86 23 -125 35 -38 13
-83 26 -100 29 -98 22 -271 89 -415 161 -91 45 -199 97 -240 115 -41 18 -115
60 -165 93 -49 33 -128 80 -175 105 -78 42 -136 83 -370 264 -97 75 -341 301
-397 368 -21 25 -71 79 -111 122 -55 56 -72 81 -68 95 8 22 141 109 182 119
16 4 70 26 119 49 148 69 229 91 378 102 113 8 249 -38 380 -129 18 -12 75
-58 127 -103 85 -73 359 -262 450 -311 19 -10 42 -24 50 -30 27 -22 325 -176
355 -185 38 -11 91 5 129 40 16 14 80 81 142 149 63 68 141 145 173 172 32 27
86 82 119 122 67 81 301 320 552 563 136 132 229 225 300 300 133 139 434 437
490 485 41 35 100 96 131 134 31 39 71 82 90 96 35 25 387 360 662 630 230
225 258 286 271 575 3 66 10 188 15 270 6 84 10 735 10 1480 l1 1330 26 55
c20 41 59 86 158 182 72 69 151 146 175 170 42 40 322 324 993 1006 158 161
288 298 288 306 0 7 11 18 24 24 37 16 206 182 212 208 3 13 15 26 26 30 18 5
791 771 1090 1079 70 72 171 173 225 225 54 53 112 110 128 128 72 77 1314
1308 1521 1508 448 432 599 581 1465 1445 481 481 917 921 969 979 97 110 158
160 194 160 21 0 22 -4 19 -67z m-6583 -1943 c69 -6 240 -10 380 -9 145 0 266
-3 280 -9 14 -5 29 -10 35 -10 16 -1 16 -17 0 -37 -12 -14 -18 -16 -21 -7 -16
36 -71 -7 -289 -228 -77 -78 -201 -201 -275 -273 -149 -145 -396 -392 -868
-870 -202 -205 -311 -322 -306 -330 4 -6 3 -9 -1 -4 -13 11 -44 -23 -38 -41 4
-9 2 -13 -4 -9 -6 4 -30 -19 -53 -49 -46 -61 -76 -94 -86 -94 -8 0 -33 -32
-34 -43 0 -5 14 0 30 10 17 9 30 21 30 26 0 5 7 7 15 3 8 -3 15 -1 15 4 0 15
27 12 33 -3 3 -7 -1 -21 -9 -32 -10 -14 -14 -15 -15 -4 0 8 -2 9 -5 3 -3 -7
-14 -10 -24 -7 -11 3 -20 0 -20 -6 0 -6 5 -11 10 -11 6 0 10 -5 10 -11 0 -6
-9 -9 -20 -6 -11 3 -20 1 -20 -4 0 -5 5 -9 11 -9 8 0 8 -4 1 -12 -6 -7 -12
-17 -14 -23 -1 -5 -6 -9 -10 -8 -4 2 -10 -7 -14 -20 -4 -12 -23 -39 -43 -61
-48 -52 -189 -198 -202 -211 -6 -5 -86 -84 -177 -175 -92 -91 -230 -226 -308
-300 -77 -74 -226 -218 -331 -320 -162 -157 -198 -187 -235 -196 -64 -16 -89
-5 -120 52 -30 55 -31 83 -3 234 17 98 19 293 4 395 -15 101 -18 145 -8 178 9
31 112 149 260 296 52 53 116 124 142 158 26 34 78 88 115 119 37 31 87 80
112 108 25 29 143 151 263 272 120 120 276 280 348 354 71 74 234 241 362 371
478 486 707 725 742 774 19 28 49 60 67 72 37 24 55 24 288 3z m1246 -2116
c-3 -8 -1 -24 4 -34 6 -11 6 -21 1 -24 -5 -4 -11 0 -14 6 -3 9 -13 4 -32 -14
-15 -15 -32 -25 -39 -21 -6 3 -8 3 -4 -1 8 -10 -39 -106 -55 -112 -7 -2 -25
-6 -42 -8 -34 -4 -105 -64 -105 -89 0 -23 -17 -21 -30 2 -14 26 -13 31 5 25 9
-4 15 0 15 7 1 22 101 124 117 121 8 -2 12 1 9 7 -4 5 3 15 15 21 22 12 50 34
79 61 9 8 22 13 28 11 7 -2 17 10 23 27 6 17 15 31 21 31 6 0 7 -7 4 -16z
m-676 -630 c-12 -22 -12 -27 0 -34 11 -7 9 -11 -11 -19 -39 -14 -56 -68 -19
-56 11 3 20 2 20 -3 0 -15 -26 -33 -35 -24 -5 4 -5 2 -2 -4 9 -16 -407 -437
-435 -440 -13 -1 -27 -3 -33 -3 -5 -1 -4 -5 4 -10 9 -6 10 -11 2 -15 -11 -7
-15 6 -11 34 1 12 -1 13 -11 3 -18 -18 -30 -16 -23 2 4 8 14 15 23 15 9 0 27
16 41 35 14 19 29 35 33 35 11 0 46 42 47 55 0 6 14 19 30 28 17 10 30 22 30
27 0 5 32 40 70 78 39 38 70 74 70 80 0 7 3 11 8 10 13 -4 53 23 47 33 -4 5 4
9 16 9 20 0 21 1 5 25 -20 31 -20 39 0 31 12 -5 15 -2 10 10 -4 11 1 18 14 21
11 3 20 10 20 16 0 16 71 78 81 71 5 -3 9 -2 8 3 -3 16 1 26 8 20 3 -4 0 -19
-7 -33z m941 -4964 c-1 -66 2 -120 7 -120 17 0 32 78 32 164 0 52 4 86 10 86
16 0 19 -15 31 -140 27 -307 37 -770 19 -920 -6 -41 -14 -165 -20 -275 -5
-110 -16 -231 -24 -270 -9 -38 -18 -92 -21 -119 -3 -27 -11 -59 -18 -70 -8
-12 -17 -50 -20 -85 -4 -36 -13 -74 -21 -85 -7 -12 -16 -46 -20 -77 -4 -31
-14 -65 -21 -75 -8 -11 -15 -32 -15 -49 0 -16 -8 -44 -18 -60 -11 -17 -21 -58
-24 -93 -4 -34 -12 -70 -20 -79 -7 -9 -18 -39 -25 -67 -15 -69 -49 -161 -68
-188 -8 -13 -15 -30 -15 -39 0 -9 -6 -22 -14 -28 -7 -6 -16 -29 -20 -50 -3
-21 -13 -44 -21 -51 -8 -7 -15 -21 -15 -31 0 -11 -9 -28 -20 -39 -11 -11 -20
-26 -20 -32 0 -15 -90 -201 -101 -208 -14 -10 -57 -77 -64 -101 -4 -13 -16
-35 -26 -48 -11 -13 -19 -30 -19 -37 0 -8 -5 -14 -10 -14 -6 0 -15 -11 -20
-25 -12 -31 -50 -87 -67 -98 -7 -4 -13 -12 -13 -18 0 -13 -101 -139 -112 -139
-4 0 -8 -7 -8 -15 0 -7 -6 -18 -14 -22 -13 -7 -32 -30 -94 -111 -9 -12 -34
-41 -54 -63 -21 -22 -38 -44 -38 -48 0 -5 -18 -23 -40 -42 -22 -19 -40 -38
-40 -44 0 -17 -139 -163 -163 -171 -12 -4 -28 -15 -35 -25 -7 -11 -20 -19 -28
-19 -8 0 -14 -7 -14 -15 0 -8 -4 -15 -8 -15 -5 0 -30 -19 -56 -42 -79 -73 -99
-88 -112 -88 -7 0 -18 -9 -24 -20 -6 -11 -16 -20 -22 -20 -6 0 -18 -7 -27 -15
-28 -26 -79 -65 -85 -65 -6 0 -28 -19 -71 -60 -12 -11 -24 -20 -27 -20 -10 0
-73 -43 -93 -64 -9 -9 -25 -16 -36 -16 -10 0 -19 -5 -19 -10 0 -6 -12 -16 -27
-23 -16 -6 -34 -20 -41 -29 -7 -10 -21 -18 -31 -18 -10 0 -26 -9 -36 -20 -10
-11 -22 -20 -27 -20 -4 0 -17 -9 -28 -20 -11 -11 -28 -20 -38 -20 -10 0 -25
-9 -35 -20 -9 -11 -24 -20 -33 -20 -9 0 -27 -9 -41 -20 -14 -11 -37 -20 -50
-20 -14 0 -36 -9 -50 -20 -14 -11 -32 -20 -39 -20 -8 0 -23 -9 -34 -20 -15
-15 -33 -20 -69 -20 -40 0 -53 5 -80 30 -32 31 -42 70 -17 70 15 0 21 76 6 85
-13 8 -31 -30 -24 -49 4 -11 1 -16 -10 -16 -10 0 -25 18 -36 43 -29 62 -76
146 -94 166 -19 21 -21 51 -3 51 8 0 14 12 14 30 0 17 -4 30 -9 30 -4 0 -8 -9
-8 -20 0 -29 -34 -25 -55 7 -10 14 -35 46 -57 69 -40 43 -40 44 -33 104 4 33
11 60 16 60 5 0 9 -4 9 -8 0 -11 88 -13 95 -2 7 12 -31 23 -55 15 -14 -5 -20
-2 -20 10 0 26 132 76 145 55 7 -12 95 -14 95 -2 0 4 -5 13 -12 20 -14 14 -6
15 51 12 24 -1 32 2 29 12 -8 22 -34 20 -90 -5 -29 -14 -55 -23 -57 -21 -11
10 12 33 40 39 18 4 41 17 51 29 17 20 19 20 32 3 10 -13 25 -17 50 -15 43 4
52 22 14 26 -16 2 -28 9 -28 16 0 16 81 57 95 47 14 -11 70 -8 72 4 1 6 -9 9
-23 8 -24 -2 -31 12 -16 33 14 22 48 31 104 28 32 -1 60 1 63 6 7 11 -21 21
-40 14 -10 -4 -15 0 -15 15 0 26 48 52 92 49 31 -3 33 -1 30 25 -3 19 1 27 12
27 9 0 16 -4 16 -10 0 -5 11 -10 25 -10 16 0 25 6 25 15 0 8 -9 15 -20 15 -33
0 -23 19 41 78 54 50 67 57 103 57 38 0 41 2 38 27 -2 14 2 29 7 33 6 3 11 -1
11 -9 0 -9 5 -16 11 -16 6 0 9 9 6 20 -5 20 15 45 27 33 4 -4 18 -9 32 -11 18
-2 25 1 22 10 -3 7 -12 13 -21 13 -8 0 -18 3 -21 6 -3 3 58 69 134 148 137
140 168 161 171 114 1 -12 3 -10 9 7 12 39 11 50 -5 50 -28 0 -14 26 54 99 32
35 60 36 62 4 0 -16 1 -16 9 2 14 31 11 55 -5 55 -24 0 -17 22 18 60 19 19 37
48 41 65 8 31 21 45 44 45 9 0 10 -5 3 -17 -10 -19 2 -53 19 -53 11 0 9 85 -2
95 -8 9 0 33 24 68 24 34 36 34 40 0 5 -45 28 -40 28 6 0 30 -4 41 -15 41 -22
0 -18 34 5 55 11 10 20 22 20 27 0 5 11 25 24 46 14 20 41 78 61 127 19 50 42
104 50 120 8 17 26 62 41 100 14 39 31 79 38 90 7 11 16 38 20 60 4 22 14 51
21 65 22 40 55 156 55 192 0 19 6 42 14 53 17 26 23 66 42 315 27 353 33 462
34 567 0 56 5 114 11 130 6 15 12 38 14 51 3 32 10 36 44 24 16 -6 32 -8 34
-5 10 9 -5 33 -19 33 -21 0 -17 41 8 67 12 13 25 23 30 23 4 0 25 18 47 40 21
22 44 40 50 40 6 0 11 5 11 11 0 6 91 102 203 213 111 111 220 222 242 247 51
55 106 101 113 95 2 -3 4 -60 3 -126z m1933 -4319 c-32 -32 -80 -82 -105 -110
-26 -28 -52 -51 -58 -51 -6 0 -11 -4 -11 -9 0 -12 -59 -71 -71 -71 -5 0 -9 -7
-9 -16 0 -9 -9 -18 -20 -21 -11 -3 -20 -9 -20 -14 0 -11 -99 -109 -110 -109
-5 0 -11 -8 -15 -17 -3 -10 -21 -29 -40 -43 -19 -14 -35 -31 -35 -38 0 -8 -9
-16 -20 -19 -11 -3 -20 -12 -20 -20 0 -8 -8 -17 -17 -20 -10 -2 -29 -20 -43
-38 -14 -19 -33 -37 -42 -40 -10 -4 -18 -10 -18 -15 0 -11 -98 -110 -109 -110
-5 0 -11 -9 -14 -20 -3 -12 -14 -20 -26 -20 -16 0 36 58 198 220 121 121 224
220 230 220 6 0 11 4 11 8 0 12 268 282 279 282 6 0 11 5 11 10 0 6 11 20 25
32 13 11 22 25 19 30 -3 4 6 12 20 18 14 5 26 14 26 19 0 5 8 12 18 14 9 3 19
5 21 6 2 0 -23 -25 -55 -58z"/>
<path d="M13538 9491 c-186 -186 -338 -341 -338 -345 0 -3 11 -6 25 -6 19 0
25 5 25 21 0 12 8 23 19 26 11 3 21 14 24 25 3 12 12 18 23 16 13 -2 19 3 19
17 0 13 7 20 20 20 13 0 20 7 20 20 0 13 7 20 20 20 13 0 20 7 20 20 0 11 7
20 15 20 8 0 17 9 20 20 4 11 14 20 25 20 13 0 20 7 20 20 0 13 8 21 22 23 15
2 20 8 16 18 -4 10 2 17 15 21 11 2 22 14 25 25 3 12 12 18 23 16 13 -2 19 3
19 17 0 15 6 19 22 18 18 -2 22 2 20 20 -1 16 3 22 18 22 13 0 20 7 20 20 0
13 7 20 20 20 13 0 20 7 20 20 0 11 7 20 15 20 8 0 17 9 20 20 3 11 12 20 20
20 8 0 17 9 20 20 4 11 15 20 25 20 14 0 19 6 17 19 -2 11 4 20 17 23 19 5 31
43 14 43 -5 0 -160 -153 -345 -339z"/>
<path d="M13940 9166 c0 -282 4 -477 9 -481 5 -3 13 0 18 7 9 15 17 867 8 916
-3 19 -12 32 -20 32 -13 0 -15 -66 -15 -474z"/>
<path d="M13900 8465 c0 -208 2 -245 15 -245 8 0 17 14 21 37 8 40 -2 382 -12
426 -17 72 -24 6 -24 -218z"/>
<path d="M13116 8613 c-3 -15 -9 -122 -13 -236 -4 -158 -3 -217 7 -247 7 -22
17 -37 21 -34 12 7 11 515 0 532 -6 10 -10 6 -15 -15z"/>
<path d="M18992 19083 c-4 -10 -6 -243 -4 -518 2 -275 3 -527 2 -560 -1 -33
-3 -1952 -6 -4264 -3 -3112 -1 -4207 7 -4217 6 -8 15 -14 20 -14 13 0 12 9577
-1 9585 -6 4 -13 -2 -18 -12z"/>
<path d="M8680 17731 c0 -5 30 -14 68 -21 60 -11 318 -10 987 1 39 1 236 -2
438 -6 278 -6 386 -5 438 4 38 7 69 17 69 22 0 5 -425 9 -1000 9 -579 0 -1000
-4 -1000 -9z"/>
<path d="M8270 17690 c0 -19 80 -30 231 -30 149 0 226 11 213 31 -7 12 -444
12 -444 -1z"/>
<path d="M10650 17690 c0 -22 58 -30 224 -30 164 0 236 9 236 31 0 5 -100 9
-230 9 -150 0 -230 -4 -230 -10z"/>
<path d="M11642 17571 c-29 -18 41 -24 321 -28 283 -5 347 1 347 28 0 11 -651
12 -668 0z"/>
<path d="M12300 17526 c0 -8 7 -17 16 -20 25 -10 727 -7 743 3 42 27 -8 31
-380 31 -317 0 -379 -2 -379 -14z"/>
<path d="M14050 17130 c0 -27 62 -32 375 -27 176 3 335 9 353 12 87 19 3 25
-348 25 -253 0 -380 -3 -380 -10z"/>
<path d="M9220 14854 c-58 -10 -70 -15 -65 -25 5 -6 83 -9 218 -8 l211 1 -3
-96 c-2 -60 1 -96 7 -96 13 0 24 89 20 160 -3 47 -6 55 -23 55 -11 0 -24 3
-30 6 -12 7 -297 9 -335 3z"/>
<path d="M8710 13331 c0 -24 147 -31 644 -31 502 0 556 3 556 30 0 6 -221 10
-600 10 -348 0 -600 -4 -600 -9z"/>
<path d="M11381 11538 c3 -780 16 -715 35 169 7 294 4 323 -28 323 -5 0 -8
-196 -7 -492z"/>
<path d="M8700 11797 c-3 -3 -68 -10 -145 -16 -77 -6 -167 -18 -200 -26 -33
-8 -103 -24 -155 -36 -52 -12 -140 -38 -195 -56 -55 -19 -130 -43 -167 -53
-128 -34 -306 -111 -443 -190 -48 -28 -153 -80 -161 -80 -28 0 -503 -351 -504
-372 0 -4 -44 -45 -98 -92 -54 -46 -120 -113 -147 -148 -27 -35 -71 -88 -98
-118 -72 -81 -334 -482 -380 -580 -22 -47 -60 -128 -84 -180 -177 -374 -220
-549 -267 -1085 -16 -183 -14 -531 4 -615 17 -77 33 -100 73 -100 46 0 131 45
145 76 8 16 12 98 12 237 0 117 7 289 15 384 22 261 99 633 165 798 59 147
234 492 288 569 31 45 73 107 92 138 94 153 445 521 589 617 65 44 107 75 167
124 33 27 104 71 158 99 55 27 115 60 135 72 159 100 349 177 521 211 19 4 48
14 64 22 51 26 222 73 358 98 73 14 153 29 178 34 25 5 133 13 240 16 128 4
228 13 292 26 53 10 116 19 140 19 74 0 116 47 121 136 2 44 0 48 -28 56 -33
10 -677 24 -685 15z"/>
<path d="M11342 10213 c-2 -1388 -1 -1503 14 -1503 16 0 16 106 10 1418 -4
779 -11 1455 -15 1502 -4 47 -8 -591 -9 -1417z"/>
<path d="M8741 11046 c-6 -7 -8 -16 -4 -19 10 -11 911 -8 918 2 16 27 -46 32
-469 31 -341 -1 -437 -4 -445 -14z"/>
<path d="M3590 9740 c-9 -23 -11 -76 -7 -203 6 -178 13 -231 28 -221 12 7 12
441 0 448 -5 3 -14 -8 -21 -24z"/>
<path d="M868 9524 c-12 -11 -10 -822 1 -829 19 -11 25 94 24 420 0 308 -7
427 -25 409z"/>
<path d="M3550 9300 c-13 -49 -10 -1325 4 -1352 4 -10 12 -15 17 -12 12 7 12
1391 -1 1399 -5 3 -14 -13 -20 -35z"/>
<path d="M4187 9094 c-10 -11 -9 -1424 2 -1424 26 0 31 107 31 732 -1 480 -4
650 -13 671 -7 16 -15 25 -20 21z"/>
<path d="M907 8704 c-10 -11 -9 -464 2 -464 17 0 23 46 28 225 4 140 2 187 -8
213 -8 19 -17 30 -22 26z"/>
<path d="M18333 7976 c-12 -6 -24 -18 -26 -28 -3 -10 -12 -18 -21 -18 -9 0
-16 -7 -16 -16 0 -9 -9 -18 -19 -21 -11 -3 -21 -13 -24 -24 -3 -10 -12 -19
-21 -19 -9 0 -16 -7 -16 -16 0 -9 -9 -18 -19 -21 -11 -3 -21 -13 -24 -24 -3
-10 -12 -19 -20 -19 -8 0 -17 -9 -20 -20 -3 -12 -14 -20 -26 -20 -14 0 -19 -5
-14 -16 4 -10 -1 -17 -16 -21 -11 -3 -21 -12 -21 -20 0 -8 -9 -17 -19 -20 -11
-3 -21 -13 -24 -24 -3 -11 -14 -19 -26 -19 -14 0 -19 -5 -14 -16 4 -10 -1 -17
-15 -21 -11 -2 -22 -13 -25 -24 -3 -10 -12 -19 -20 -19 -8 0 -17 -9 -20 -20
-3 -11 -12 -20 -20 -20 -8 0 -17 -9 -20 -20 -3 -11 -12 -20 -20 -20 -8 0 -17
-9 -20 -20 -3 -11 -12 -20 -20 -20 -8 0 -17 -9 -20 -20 -3 -11 -12 -20 -21
-20 -9 0 -16 -7 -16 -16 0 -9 -8 -18 -18 -20 -18 -5 -44 -49 -34 -58 7 -8 72
56 72 72 0 7 4 11 8 8 5 -3 19 6 30 19 12 14 26 25 32 25 5 0 10 4 10 10 0 12
44 55 64 63 9 4 16 11 16 16 0 12 118 131 146 147 11 6 19 15 19 20 0 9 198
207 210 211 19 6 24 9 27 22 4 17 46 61 57 61 11 0 22 28 13 33 -4 2 -17 -1
-29 -7z"/>
<path d="M3592 7906 c-7 -35 -12 -143 -12 -240 0 -170 8 -225 31 -211 11 8 12
502 1 509 -5 3 -14 -23 -20 -58z"/>
<path d="M2817 6058 c-13 -18 -42 -49 -63 -70 -22 -20 -59 -55 -84 -78 -25
-24 -44 -46 -43 -51 2 -4 -6 -11 -17 -14 -11 -4 -20 -11 -20 -16 0 -5 -54 -62
-120 -127 -66 -65 -120 -123 -120 -130 0 -7 -4 -12 -10 -12 -22 0 -8 -16 15
-18 20 -1 24 2 22 21 -1 17 3 22 19 20 15 -2 20 3 20 20 -1 13 5 22 14 22 8 0
17 9 20 20 3 11 16 21 27 23 15 2 20 8 16 18 -4 10 2 17 15 21 11 2 22 13 25
24 3 10 12 19 20 19 8 0 17 9 20 20 3 11 12 20 21 20 9 0 16 6 16 13 1 15 93
107 109 107 6 0 11 7 11 16 0 9 9 18 19 21 11 3 21 13 24 24 3 10 12 19 21 19
9 0 16 6 16 13 0 7 11 23 25 35 24 21 34 52 16 52 -5 0 -20 -15 -34 -32z"/>
<path d="M9530 3015 c-8 -2 -45 -7 -83 -10 -37 -4 -65 -11 -62 -16 8 -12 1145
-12 1145 0 0 5 -10 12 -22 17 -22 7 -947 16 -978 9z"/>
<path d="M9310 2446 c0 -8 7 -17 16 -20 9 -3 282 -6 608 -6 589 0 616 1 616
32 0 4 -279 8 -620 8 -523 0 -620 -2 -620 -14z"/>
<path d="M9235 293 c-128 -10 -165 -16 -160 -24 8 -13 512 -12 520 1 13 20
-50 30 -183 28 -75 -1 -155 -3 -177 -5z"/>
<path d="M10521 292 c-14 -4 -26 -13 -29 -20 -3 -9 58 -12 267 -12 249 0 316
6 258 25 -31 10 -466 16 -496 7z"/>
<path d="M9690 254 c-76 -7 -111 -15 -105 -25 8 -12 912 -12 919 0 3 5 -4 12
-17 16 -22 8 -716 15 -797 9z"/>
</g>
</svg>
